<svg xmlns="http://www.w3.org/2000/svg" xmlns:xlink="http://www.w3.org/1999/xlink" width="1920" zoomAndPan="magnify" viewBox="0 0 1440 809.999993" height="1080" preserveAspectRatio="xMidYMid meet" version="1.0"><defs><g/><clipPath id="603aa36d26"><rect x="0" width="952" y="0" height="313"/></clipPath></defs><g fill="#333333" fill-opacity="1"><g transform="translate(806.363613, 660.939337)"><g><path d="M -11.734375 -236.207031 C -4.234375 -238.089844 2.441406 -236.65625 8.289062 -231.914062 C 13.140625 -227.980469 17.519531 -221.53125 21.421875 -212.570312 C 25.175781 -204.378906 29.203125 -193.414062 33.496094 -179.667969 C 37.738281 -166.089844 41.90625 -151.148438 45.996094 -134.839844 C 49.554688 -120.648438 52.523438 -106.929688 54.902344 -93.6875 C 57.285156 -80.433594 59.097656 -67.96875 60.34375 -56.296875 C 61.757812 -43.347656 61.125 -33.625 58.449219 -27.128906 C 55.296875 -19.476562 49.667969 -14.632812 41.5625 -12.601562 C 33.875 -10.671875 27.140625 -11.746094 21.363281 -15.820312 C 16.253906 -19.421875 11.789062 -25.949219 7.964844 -35.398438 C 4.824219 -42.863281 1.335938 -52.761719 -2.496094 -65.097656 C -6.296875 -77.332031 -9.949219 -90.433594 -13.453125 -104.398438 C -18.289062 -123.671875 -22.09375 -141.339844 -24.863281 -157.402344 C -27.652344 -173.554688 -29.375 -187.179688 -30.035156 -198.269531 C -30.53125 -208.566406 -29.703125 -216.597656 -27.539062 -222.367188 C -24.816406 -229.632812 -19.546875 -234.246094 -11.734375 -236.207031 Z M -8.066406 -221.597656 C -10.773438 -220.917969 -12.5625 -219.414062 -13.433594 -217.082031 C -14.871094 -213.253906 -15.390625 -207.28125 -15 -199.164062 C -14.371094 -188.628906 -12.714844 -175.5625 -10.019531 -159.964844 C -7.3125 -144.269531 -3.585938 -126.972656 1.15625 -108.0625 C 4.589844 -94.367188 8.167969 -81.535156 11.886719 -69.566406 C 15.574219 -57.699219 18.921875 -48.191406 21.929688 -41.050781 C 24.644531 -34.335938 27.347656 -30.03125 30.039062 -28.132812 C 32.058594 -26.710938 34.675781 -26.402344 37.898438 -27.210938 C 41.089844 -28.011719 43.300781 -29.894531 44.523438 -32.867188 C 46.222656 -36.992188 46.503906 -44.269531 45.367188 -54.699219 C 44.15625 -66.015625 42.394531 -78.125 40.078125 -91.023438 C 37.761719 -103.933594 34.863281 -117.316406 31.386719 -131.175781 C 27.363281 -147.207031 23.277344 -161.871094 19.121094 -175.175781 C 15.015625 -188.3125 11.179688 -198.769531 7.613281 -206.550781 C 4.6875 -213.269531 1.75 -217.824219 -1.199219 -220.214844 C -3.148438 -221.796875 -5.4375 -222.257812 -8.066406 -221.597656 Z M -8.066406 -221.597656 "/></g></g></g><g fill="#fdc23d" fill-opacity="1"><g transform="translate(806.363613, 660.939337)"><g><path d="M -9.90625 -228.90625 C -4.84375 -230.175781 -0.359375 -229.226562 3.546875 -226.0625 C 7.453125 -222.894531 11.109375 -217.394531 14.515625 -209.5625 C 18.179688 -201.582031 22.113281 -190.867188 26.3125 -177.421875 C 30.507812 -163.972656 34.640625 -149.164062 38.703125 -133 C 42.210938 -118.976562 45.140625 -105.425781 47.484375 -92.34375 C 49.835938 -79.269531 51.625 -66.984375 52.84375 -55.484375 C 54.125 -43.804688 53.671875 -35.304688 51.484375 -29.984375 C 49.296875 -24.671875 45.378906 -21.304688 39.734375 -19.890625 C 34.273438 -18.523438 29.597656 -19.21875 25.703125 -21.96875 C 21.804688 -24.726562 18.21875 -30.148438 14.9375 -38.234375 C 11.863281 -45.523438 8.445312 -55.21875 4.6875 -67.3125 C 0.925781 -79.414062 -2.6875 -92.382812 -6.15625 -106.21875 C -10.945312 -125.3125 -14.707031 -142.796875 -17.4375 -158.671875 C -20.175781 -174.546875 -21.867188 -187.894531 -22.515625 -198.71875 C -22.960938 -207.925781 -22.285156 -214.925781 -20.484375 -219.71875 C -18.691406 -224.519531 -15.164062 -227.582031 -9.90625 -228.90625 Z M -9.90625 -228.90625 "/></g></g></g><g fill="#333333" fill-opacity="1"><g transform="translate(846.496836, 644.310828)"><g><path d="M 0.300781 -28.316406 C 0.300781 -37.574219 4.792969 -49.484375 13.773438 -64.050781 C 22.261719 -77.824219 35.914062 -94.878906 54.722656 -115.222656 C 73.363281 -135.382812 98.140625 -159.203125 129.054688 -186.683594 L 134.058594 -181.054688 L 126.527344 -181.054688 L 126.527344 -181.957031 L 134.058594 -181.957031 L 135.78125 -174.625 C 125.410156 -172.183594 114.035156 -169.847656 101.652344 -167.617188 C 89.246094 -165.378906 77.289062 -163.597656 65.78125 -162.273438 C 54.148438 -160.933594 44.472656 -160.265625 36.753906 -160.265625 C 25.335938 -160.265625 16.671875 -162.324219 10.761719 -166.433594 C 3.988281 -171.148438 0.601562 -177.925781 0.601562 -186.777344 C 0.601562 -193.082031 2.210938 -198.714844 5.429688 -203.679688 C 8.628906 -208.605469 13.691406 -212.679688 20.628906 -215.898438 C 30.152344 -220.230469 43.25 -223.601562 59.925781 -226.011719 C 76.25 -228.375 93.429688 -229.554688 111.464844 -229.554688 C 125.691406 -229.554688 137.449219 -228.488281 146.742188 -226.351562 C 157.03125 -223.984375 164.820312 -219.847656 170.101562 -213.9375 C 175.59375 -207.789062 178.339844 -199.636719 178.339844 -189.488281 C 178.339844 -182.144531 175.15625 -172.828125 168.785156 -161.535156 C 162.839844 -151.003906 154.152344 -138.835938 142.71875 -125.035156 C 131.429688 -111.40625 117.667969 -96.425781 101.441406 -80.097656 C 85.269531 -63.820312 66.882812 -46.496094 46.285156 -28.121094 L 41.273438 -33.742188 L 48.804688 -33.742188 L 48.804688 -32.835938 L 41.273438 -32.835938 L 38.269531 -39.742188 C 47.867188 -43.914062 58.828125 -47.609375 71.15625 -50.820312 C 83.347656 -53.996094 95.640625 -56.554688 108.035156 -58.503906 C 120.574219 -60.472656 131.859375 -61.457031 141.890625 -61.457031 C 152.96875 -61.457031 161.230469 -59.464844 166.671875 -55.484375 C 172.84375 -50.964844 175.929688 -43.917969 175.929688 -34.34375 C 175.929688 -24.257812 172.003906 -16.152344 164.144531 -10.027344 C 157.28125 -4.675781 147.746094 -0.78125 135.535156 1.660156 C 126.101562 3.507812 116.429688 5.042969 106.511719 6.269531 C 96.601562 7.496094 86.992188 8.363281 77.683594 8.875 C 68.410156 9.386719 59.988281 9.640625 52.417969 9.640625 C 36.53125 9.640625 24.164062 6.90625 15.320312 1.433594 C 5.308594 -4.757812 0.300781 -14.675781 0.300781 -28.316406 Z M 15.363281 -28.316406 C 15.363281 -20.269531 17.988281 -14.625 23.242188 -11.375 C 29.660156 -7.40625 39.386719 -5.421875 52.417969 -5.421875 C 59.710938 -5.421875 67.859375 -5.667969 76.859375 -6.164062 C 85.824219 -6.65625 95.09375 -7.496094 104.664062 -8.679688 C 114.230469 -9.863281 123.535156 -11.339844 132.582031 -13.109375 C 142.460938 -15.085938 149.894531 -18.015625 154.882812 -21.90625 C 158.875 -25.015625 160.867188 -29.164062 160.867188 -34.34375 C 160.867188 -38.824219 159.839844 -41.820312 157.777344 -43.328125 C 154.984375 -45.371094 149.6875 -46.394531 141.890625 -46.394531 C 132.640625 -46.394531 122.136719 -45.46875 110.371094 -43.621094 C 98.46875 -41.753906 86.660156 -39.292969 74.953125 -36.242188 C 63.378906 -33.226562 53.15625 -29.789062 44.273438 -25.929688 L 33.742188 -21.351562 L 33.742188 -37.113281 L 36.257812 -39.359375 C 56.628906 -57.535156 74.796875 -74.652344 90.757812 -90.714844 C 106.664062 -106.71875 120.117188 -121.363281 131.121094 -134.644531 C 141.980469 -147.753906 150.160156 -159.1875 155.664062 -168.9375 C 160.742188 -177.933594 163.277344 -184.78125 163.277344 -189.488281 C 163.277344 -195.804688 161.808594 -200.609375 158.867188 -203.898438 C 155.714844 -207.429688 150.546875 -210.019531 143.367188 -211.671875 C 135.183594 -213.550781 124.550781 -214.492188 111.464844 -214.492188 C 94.152344 -214.492188 77.691406 -213.363281 62.082031 -211.105469 C 46.824219 -208.898438 35.121094 -205.941406 26.96875 -202.238281 C 22.660156 -200.234375 19.691406 -197.984375 18.066406 -195.480469 C 16.464844 -193.011719 15.664062 -190.109375 15.664062 -186.777344 C 15.664062 -183.175781 16.898438 -180.515625 19.363281 -178.800781 C 22.691406 -176.484375 28.488281 -175.328125 36.753906 -175.328125 C 43.894531 -175.328125 52.996094 -175.964844 64.058594 -177.238281 C 75.246094 -178.523438 86.886719 -180.257812 98.980469 -182.441406 C 111.101562 -184.625 122.21875 -186.90625 132.332031 -189.289062 L 141.589844 -191.464844 L 141.589844 -177.671875 L 139.0625 -175.421875 C 108.515625 -148.273438 84.089844 -124.796875 65.78125 -104.996094 C 47.632812 -85.371094 34.574219 -69.085938 26.59375 -56.148438 C 19.109375 -44.003906 15.363281 -34.726562 15.363281 -28.316406 Z M 15.363281 -28.316406 "/></g></g></g><g fill="#3f9cbb" fill-opacity="1"><g transform="translate(846.496836, 644.310828)"><g><path d="M 7.828125 -28.3125 C 7.828125 -36.144531 11.941406 -46.738281 20.171875 -60.09375 C 28.410156 -73.445312 41.769531 -90.113281 60.25 -110.09375 C 78.726562 -130.082031 103.332031 -153.734375 134.0625 -181.046875 L 134.0625 -181.953125 C 123.8125 -179.546875 112.5625 -177.238281 100.3125 -175.03125 C 88.0625 -172.820312 76.265625 -171.0625 64.921875 -169.75 C 53.578125 -168.445312 44.1875 -167.796875 36.75 -167.796875 C 26.90625 -167.796875 19.675781 -169.398438 15.0625 -172.609375 C 10.445312 -175.828125 8.140625 -180.550781 8.140625 -186.78125 C 8.140625 -191.59375 9.34375 -195.859375 11.75 -199.578125 C 14.15625 -203.296875 18.171875 -206.457031 23.796875 -209.0625 C 32.628906 -213.082031 45.03125 -216.242188 61 -218.546875 C 76.96875 -220.859375 93.789062 -222.015625 111.46875 -222.015625 C 125.125 -222.015625 136.316406 -221.007812 145.046875 -219 C 153.785156 -217 160.265625 -213.640625 164.484375 -208.921875 C 168.703125 -204.203125 170.8125 -197.722656 170.8125 -189.484375 C 170.8125 -183.460938 167.945312 -175.378906 162.21875 -165.234375 C 156.5 -155.085938 148.066406 -143.285156 136.921875 -129.828125 C 125.773438 -116.378906 112.164062 -101.570312 96.09375 -85.40625 C 80.03125 -69.238281 61.753906 -52.015625 41.265625 -33.734375 L 41.265625 -32.84375 C 50.503906 -36.851562 61.097656 -40.414062 73.046875 -43.53125 C 85.003906 -46.644531 97.054688 -49.15625 109.203125 -51.0625 C 121.347656 -52.96875 132.242188 -53.921875 141.890625 -53.921875 C 151.328125 -53.921875 158.101562 -52.414062 162.21875 -49.40625 C 166.34375 -46.394531 168.40625 -41.375 168.40625 -34.34375 C 168.40625 -26.707031 165.441406 -20.578125 159.515625 -15.953125 C 153.585938 -11.335938 145.101562 -7.925781 134.0625 -5.71875 C 124.820312 -3.914062 115.332031 -2.410156 105.59375 -1.203125 C 95.851562 0.00390625 86.410156 0.859375 77.265625 1.359375 C 68.128906 1.859375 59.847656 2.109375 52.421875 2.109375 C 37.960938 2.109375 26.914062 -0.25 19.28125 -4.96875 C 11.644531 -9.6875 7.828125 -17.46875 7.828125 -28.3125 Z M 7.828125 -28.3125 "/></g></g></g><g fill="#333333" fill-opacity="1"><g transform="translate(586.475393, 624.965239)"><g><path d="M 89.140625 26.570312 C 61.460938 21.457031 42.785156 9.679688 33.121094 -8.761719 C 23.78125 -26.578125 22.296875 -52.734375 28.664062 -87.222656 C 30.734375 -98.429688 33.199219 -109.820312 36.058594 -121.390625 C 38.921875 -132.960938 42.007812 -144.082031 45.324219 -154.746094 C 48.671875 -165.519531 52.011719 -174.8125 55.351562 -182.621094 C 59.09375 -191.628906 63.78125 -198.582031 69.414062 -203.484375 C 75.984375 -209.199219 84.3125 -211.128906 94.394531 -209.265625 C 102.492188 -207.769531 108.425781 -204.007812 112.203125 -197.980469 C 115.839844 -192.167969 116.808594 -184.648438 115.101562 -175.421875 C 114.179688 -170.425781 112.253906 -164.089844 109.324219 -156.414062 L 100.183594 -132.65625 C 96.890625 -124.148438 93.738281 -115.570312 90.726562 -106.917969 C 87.808594 -98.550781 85.675781 -90.703125 84.324219 -83.378906 C 80.996094 -65.359375 81.308594 -52.648438 85.261719 -45.246094 C 88.902344 -38.429688 95.460938 -34.144531 104.929688 -32.398438 C 113.734375 -30.773438 120.800781 -32.714844 126.125 -38.230469 C 132.269531 -44.59375 136.902344 -56.214844 140.015625 -73.097656 C 141.035156 -78.605469 141.957031 -85.765625 142.789062 -94.574219 C 143.636719 -103.578125 144.457031 -112.992188 145.253906 -122.816406 L 147.539062 -150.140625 C 148.285156 -158.738281 149.0625 -165.226562 149.875 -169.613281 C 151.746094 -179.761719 155.152344 -187.261719 160.085938 -192.113281 C 165.753906 -197.683594 172.886719 -199.675781 181.476562 -198.089844 C 190.613281 -196.402344 197.25 -192.117188 201.386719 -185.238281 C 205.101562 -179.054688 206.851562 -170.867188 206.632812 -160.667969 C 206.632812 -152.789062 206.140625 -143.363281 205.15625 -132.394531 C 204.179688 -121.519531 202.875 -110.246094 201.234375 -98.578125 C 199.597656 -86.925781 197.839844 -76.007812 195.960938 -65.828125 C 191.386719 -41.054688 184.789062 -21.378906 176.171875 -6.804688 C 167.09375 8.542969 155.253906 18.90625 140.648438 24.285156 C 126.425781 29.523438 109.257812 30.285156 89.140625 26.570312 Z M 91.878906 11.757812 C 109.285156 14.972656 123.808594 14.4375 135.441406 10.152344 C 146.695312 6.007812 155.949219 -2.199219 163.207031 -14.472656 C 170.917969 -27.511719 176.898438 -45.542969 181.148438 -68.566406 C 182.988281 -78.53125 184.714844 -89.234375 186.320312 -100.671875 C 187.921875 -112.09375 189.203125 -123.117188 190.152344 -133.738281 C 191.097656 -144.265625 191.570312 -153.347656 191.574219 -160.988281 C 191.730469 -168.285156 190.695312 -173.785156 188.476562 -177.480469 C 186.671875 -180.476562 183.429688 -182.410156 178.742188 -183.277344 C 175.285156 -183.914062 172.585938 -183.277344 170.644531 -181.371094 C 167.972656 -178.742188 165.984375 -173.910156 164.6875 -166.878906 C 163.964844 -162.96875 163.253906 -156.96875 162.550781 -148.882812 L 160.269531 -121.601562 C 159.464844 -111.707031 158.636719 -102.230469 157.785156 -93.164062 C 156.914062 -83.90625 155.925781 -76.308594 154.828125 -70.359375 C 151.164062 -50.507812 145.207031 -36.308594 136.957031 -27.765625 C 127.890625 -18.375 116.300781 -14.980469 102.195312 -17.585938 C 87.96875 -20.210938 77.894531 -27.066406 71.976562 -38.148438 C 66.367188 -48.648438 65.546875 -64.636719 69.511719 -86.113281 C 71.003906 -94.195312 73.332031 -102.78125 76.5 -111.875 C 79.570312 -120.6875 82.777344 -129.414062 86.125 -138.0625 L 95.25 -161.785156 C 97.855469 -168.609375 99.535156 -174.0625 100.292969 -178.15625 C 101.285156 -183.542969 101 -187.484375 99.433594 -189.988281 C 98.003906 -192.273438 95.414062 -193.761719 91.660156 -194.453125 C 86.335938 -195.4375 82.21875 -194.65625 79.300781 -192.121094 C 75.445312 -188.765625 72.078125 -183.625 69.203125 -176.699219 C 66.066406 -169.367188 62.902344 -160.558594 59.707031 -150.277344 C 56.480469 -139.894531 53.472656 -129.058594 50.683594 -117.777344 C 47.894531 -106.496094 45.492188 -95.402344 43.476562 -84.488281 C 37.738281 -53.410156 38.734375 -30.5 46.460938 -15.753906 C 53.859375 -1.636719 69 7.53125 91.878906 11.757812 Z M 91.878906 11.757812 "/></g></g></g><g fill="#63c6a2" fill-opacity="1"><g transform="translate(586.475393, 624.965239)"><g><path d="M 90.515625 19.15625 C 65.234375 14.488281 48.320312 4.019531 39.78125 -12.25 C 31.25 -28.53125 30.007812 -53.066406 36.0625 -85.859375 C 38.101562 -96.910156 40.535156 -108.148438 43.359375 -119.578125 C 46.191406 -131.015625 49.238281 -141.992188 52.5 -152.515625 C 55.769531 -163.046875 59.03125 -172.09375 62.28125 -179.65625 C 65.582031 -187.613281 69.601562 -193.65625 74.34375 -197.78125 C 79.09375 -201.914062 85.320312 -203.273438 93.03125 -201.859375 C 98.945312 -200.765625 103.207031 -198.132812 105.8125 -193.96875 C 108.414062 -189.8125 109.039062 -184.082031 107.6875 -176.78125 C 106.851562 -172.238281 105.050781 -166.34375 102.28125 -159.09375 C 99.519531 -151.84375 96.476562 -143.929688 93.15625 -135.359375 C 89.832031 -126.785156 86.648438 -118.128906 83.609375 -109.390625 C 80.566406 -100.660156 78.335938 -92.441406 76.921875 -84.734375 C 73.273438 -64.984375 73.84375 -50.632812 78.625 -41.6875 C 83.40625 -32.738281 91.710938 -27.171875 103.546875 -24.984375 C 115.015625 -22.867188 124.347656 -25.535156 131.546875 -32.984375 C 138.742188 -40.441406 144.039062 -53.351562 147.4375 -71.71875 C 148.488281 -77.457031 149.4375 -84.84375 150.28125 -93.875 C 151.125 -102.90625 151.945312 -112.347656 152.75 -122.203125 C 153.550781 -132.066406 154.3125 -141.164062 155.03125 -149.5 C 155.757812 -157.84375 156.503906 -164.085938 157.265625 -168.234375 C 160.441406 -185.429688 168.050781 -192.914062 180.09375 -190.6875 C 187.007812 -189.414062 191.953125 -186.304688 194.921875 -181.359375 C 197.890625 -176.421875 199.285156 -169.578125 199.109375 -160.828125 C 199.097656 -153.066406 198.609375 -143.8125 197.640625 -133.0625 C 196.679688 -122.320312 195.390625 -111.175781 193.765625 -99.625 C 192.148438 -88.082031 190.414062 -77.269531 188.5625 -67.1875 C 184.144531 -43.289062 177.851562 -24.4375 169.6875 -10.625 C 161.519531 3.175781 150.972656 12.453125 138.046875 17.203125 C 125.117188 21.960938 109.273438 22.613281 90.515625 19.15625 Z M 90.515625 19.15625 "/></g></g></g><g fill="#333333" fill-opacity="1"><g transform="translate(400.149626, 630.836004)"><g><path d="M 111.191406 5.425781 C 90 5.425781 71.605469 1.089844 56.003906 -7.578125 C 40.222656 -16.34375 28.113281 -28.832031 19.683594 -45.035156 C 11.382812 -60.992188 7.230469 -79.828125 7.230469 -101.546875 C 7.230469 -126.003906 11.753906 -147.542969 20.796875 -166.160156 C 29.957031 -185.023438 42.925781 -199.757812 59.703125 -210.367188 C 76.503906 -220.988281 96.175781 -226.296875 118.722656 -226.296875 C 135.0625 -226.296875 149.898438 -223.316406 163.230469 -217.355469 C 176.535156 -211.40625 187.910156 -203.273438 197.351562 -192.964844 C 206.746094 -182.707031 213.972656 -170.847656 219.035156 -157.382812 C 224.078125 -143.972656 226.597656 -129.679688 226.597656 -114.503906 C 226.597656 -99.699219 224.683594 -85.964844 220.851562 -73.300781 C 216.925781 -60.320312 211.292969 -49.609375 203.960938 -41.164062 L 203.765625 -40.9375 L 187.578125 -25.058594 L 182.304688 -30.433594 L 188.121094 -25.648438 C 179.875 -15.617188 169.027344 -7.902344 155.582031 -2.5 C 142.425781 2.78125 127.628906 5.425781 111.191406 5.425781 Z M 111.191406 -9.640625 C 125.6875 -9.640625 138.613281 -11.921875 149.964844 -16.480469 C 161.027344 -20.925781 169.867188 -27.171875 176.484375 -35.21875 L 176.738281 -35.53125 L 192.996094 -51.480469 L 198.273438 -46.101562 L 192.585938 -51.042969 C 198.511719 -57.867188 203.125 -66.738281 206.429688 -77.664062 C 209.832031 -88.90625 211.53125 -101.183594 211.53125 -114.503906 C 211.53125 -127.855469 209.332031 -140.378906 204.933594 -152.082031 C 200.554688 -163.726562 194.324219 -173.964844 186.238281 -182.789062 C 178.203125 -191.5625 168.484375 -198.5 157.082031 -203.601562 C 145.703125 -208.6875 132.917969 -211.230469 118.722656 -211.230469 C 99.085938 -211.230469 82.097656 -206.699219 67.757812 -197.632812 C 53.398438 -188.550781 42.261719 -175.867188 34.347656 -159.578125 C 26.316406 -143.039062 22.296875 -123.695312 22.296875 -101.546875 C 22.296875 -82.285156 25.882812 -65.765625 33.050781 -51.992188 C 40.085938 -38.464844 50.175781 -28.050781 63.320312 -20.746094 C 76.648438 -13.34375 92.605469 -9.640625 111.191406 -9.640625 Z M 220.875 12.957031 C 212.171875 12.957031 203.398438 9.132812 194.550781 1.480469 C 186.601562 -5.394531 178.421875 -15.140625 170.007812 -27.761719 L 166.492188 -33.035156 L 193.027344 -58.261719 L 197.5625 -56.367188 C 211.820312 -50.410156 223.035156 -43.726562 231.207031 -36.316406 C 240.386719 -27.992188 244.980469 -19.300781 244.980469 -10.246094 C 244.980469 -4.289062 242.871094 1.011719 238.660156 5.660156 C 234.25 10.523438 228.324219 12.957031 220.875 12.957031 Z M 220.875 -2.109375 C 223.871094 -2.109375 226.078125 -2.890625 227.496094 -4.457031 C 229.105469 -6.234375 229.914062 -8.164062 229.914062 -10.246094 C 229.914062 -14.847656 226.96875 -19.820312 221.085938 -25.15625 C 214.191406 -31.40625 204.414062 -37.175781 191.753906 -42.46875 L 194.65625 -49.417969 L 199.847656 -43.957031 L 181.46875 -26.480469 L 176.277344 -31.941406 L 182.542969 -36.121094 C 190.203125 -24.632812 197.488281 -15.898438 204.40625 -9.917969 C 210.425781 -4.710938 215.914062 -2.109375 220.875 -2.109375 Z M 158.332031 -44.699219 C 145.792969 -50.535156 135.824219 -57.429688 128.425781 -65.378906 C 120.351562 -74.054688 116.3125 -82.195312 116.3125 -89.796875 C 116.3125 -96.867188 118.558594 -102.40625 123.046875 -106.414062 C 127.289062 -110.199219 132.476562 -112.09375 138.609375 -112.09375 C 147.839844 -112.09375 156.214844 -108.023438 163.730469 -99.878906 C 170.3125 -92.746094 176.484375 -82.785156 182.242188 -69.984375 L 184.261719 -65.5 L 163.378906 -42.347656 Z M 164.691406 -58.355469 L 161.511719 -51.527344 L 155.917969 -56.574219 L 169.777344 -71.941406 L 175.371094 -66.894531 L 168.503906 -63.804688 C 163.414062 -75.109375 158.132812 -83.730469 152.660156 -89.65625 C 148.125 -94.570312 143.441406 -97.027344 138.609375 -97.027344 C 136.308594 -97.027344 134.464844 -96.410156 133.082031 -95.175781 C 131.945312 -94.160156 131.378906 -92.367188 131.378906 -89.796875 C 131.378906 -86.144531 134.070312 -81.429688 139.453125 -75.640625 C 145.515625 -69.128906 153.929688 -63.367188 164.691406 -58.355469 Z M 119.324219 -52.429688 C 126.734375 -52.429688 133.617188 -53.503906 139.964844 -55.648438 C 146.207031 -57.761719 151.984375 -61.027344 157.292969 -65.449219 L 166.332031 -72.984375 L 171.152344 -67.195312 L 164.214844 -70.132812 C 166.238281 -74.910156 167.902344 -80.378906 169.207031 -86.539062 C 170.503906 -92.652344 171.152344 -99.363281 171.152344 -106.671875 C 171.152344 -127.863281 166.210938 -144.023438 156.332031 -155.152344 C 146.679688 -166.019531 133.84375 -171.457031 117.820312 -171.457031 C 107.867188 -171.457031 99.148438 -169.003906 91.664062 -164.097656 C 84.113281 -159.152344 78.230469 -152.199219 74.011719 -143.238281 C 69.667969 -134.007812 67.496094 -123.023438 67.496094 -110.285156 C 67.496094 -98.214844 69.691406 -87.785156 74.085938 -79.003906 C 78.347656 -70.476562 84.316406 -63.925781 91.992188 -59.355469 C 99.746094 -54.738281 108.855469 -52.429688 119.324219 -52.429688 Z M 119.324219 -37.363281 C 106.089844 -37.363281 94.410156 -40.378906 84.285156 -46.410156 C 74.082031 -52.488281 66.1875 -61.105469 60.609375 -72.265625 C 55.15625 -83.167969 52.429688 -95.84375 52.429688 -110.285156 C 52.429688 -125.269531 55.082031 -138.390625 60.378906 -149.652344 C 65.804688 -161.183594 73.480469 -170.199219 83.40625 -176.703125 C 93.398438 -183.25 104.871094 -186.523438 117.820312 -186.523438 C 138.355469 -186.523438 154.949219 -179.402344 167.597656 -165.15625 C 180.011719 -151.175781 186.21875 -131.679688 186.21875 -106.671875 C 186.21875 -98.308594 185.460938 -90.554688 183.945312 -83.410156 C 182.441406 -76.3125 180.488281 -69.925781 178.09375 -64.261719 L 177.378906 -62.578125 L 166.9375 -53.875 C 160.191406 -48.253906 152.808594 -44.085938 144.789062 -41.378906 C 136.875 -38.703125 128.386719 -37.363281 119.324219 -37.363281 Z M 119.324219 -37.363281 "/></g></g></g><g fill="#f18071" fill-opacity="1"><g transform="translate(400.149626, 630.836004)"><g><path d="M 111.1875 -2.109375 C 91.300781 -2.109375 74.125 -6.125 59.65625 -14.15625 C 45.195312 -22.195312 34.097656 -33.648438 26.359375 -48.515625 C 18.628906 -63.378906 14.765625 -81.054688 14.765625 -101.546875 C 14.765625 -124.847656 19.03125 -145.285156 27.5625 -162.859375 C 36.101562 -180.441406 48.15625 -194.15625 63.71875 -204 C 79.289062 -213.84375 97.625 -218.765625 118.71875 -218.765625 C 133.988281 -218.765625 147.800781 -216 160.15625 -210.46875 C 172.507812 -204.945312 183.054688 -197.414062 191.796875 -187.875 C 200.535156 -178.332031 207.265625 -167.285156 211.984375 -154.734375 C 216.703125 -142.179688 219.0625 -128.769531 219.0625 -114.5 C 219.0625 -100.4375 217.253906 -87.425781 213.640625 -75.46875 C 210.023438 -63.519531 204.90625 -53.734375 198.28125 -46.109375 L 182.296875 -30.4375 C 174.867188 -21.394531 165.023438 -14.410156 152.765625 -9.484375 C 140.515625 -4.566406 126.65625 -2.109375 111.1875 -2.109375 Z M 220.875 5.421875 C 214.039062 5.421875 206.90625 2.207031 199.46875 -4.21875 C 192.039062 -10.644531 184.3125 -19.882812 176.28125 -31.9375 L 194.65625 -49.421875 C 208.113281 -43.796875 218.609375 -37.566406 226.140625 -30.734375 C 233.679688 -23.898438 237.453125 -17.070312 237.453125 -10.25 C 237.453125 -6.226562 235.992188 -2.613281 233.078125 0.59375 C 230.160156 3.8125 226.09375 5.421875 220.875 5.421875 Z M 161.515625 -51.53125 C 149.859375 -56.945312 140.664062 -63.269531 133.9375 -70.5 C 127.207031 -77.738281 123.84375 -84.171875 123.84375 -89.796875 C 123.84375 -94.617188 125.25 -98.285156 128.0625 -100.796875 C 130.875 -103.304688 134.390625 -104.5625 138.609375 -104.5625 C 145.640625 -104.5625 152.164062 -101.296875 158.1875 -94.765625 C 164.21875 -88.234375 169.945312 -78.941406 175.375 -66.890625 Z M 119.328125 -44.890625 C 127.566406 -44.890625 135.25 -46.09375 142.375 -48.5 C 149.507812 -50.914062 156.085938 -54.632812 162.109375 -59.65625 L 171.15625 -67.203125 C 173.363281 -72.421875 175.171875 -78.34375 176.578125 -84.96875 C 177.984375 -91.601562 178.6875 -98.835938 178.6875 -106.671875 C 178.6875 -129.773438 173.109375 -147.601562 161.953125 -160.15625 C 150.804688 -172.707031 136.09375 -178.984375 117.8125 -178.984375 C 106.363281 -178.984375 96.269531 -176.117188 87.53125 -170.390625 C 78.789062 -164.671875 72.007812 -156.6875 67.1875 -146.4375 C 62.375 -136.195312 59.96875 -124.144531 59.96875 -110.28125 C 59.96875 -97.03125 62.425781 -85.484375 67.34375 -75.640625 C 72.269531 -65.796875 79.203125 -58.207031 88.140625 -52.875 C 97.078125 -47.550781 107.472656 -44.890625 119.328125 -44.890625 Z M 119.328125 -44.890625 "/></g></g></g><g transform="matrix(1, 0, 0, 1, 244, 111)"><g clip-path="url(#603aa36d26)"><g fill="#333333" fill-opacity="1"><g transform="translate(1.07285, 232.61158)"><g><path d="M 13.296875 -211.339844 L 51.503906 -211.339844 L 51.503906 7.761719 L 13.296875 7.761719 Z M 28.824219 -195.816406 L 28.824219 -7.761719 L 35.976562 -7.761719 L 35.976562 -195.816406 Z M 28.824219 -195.816406 "/></g></g></g><g fill="#333333" fill-opacity="1"><g transform="translate(76.132304, 232.61158)"><g><path d="M 122.039062 7.761719 L 92.675781 7.761719 L 92.675781 -73.980469 C 92.675781 -85.183594 91.179688 -93.007812 88.191406 -97.460938 C 85.859375 -100.929688 81.03125 -102.667969 73.710938 -102.667969 C 65.113281 -102.667969 59.183594 -99.960938 55.925781 -94.542969 C 51.894531 -87.855469 49.882812 -77.132812 49.882812 -62.371094 L 49.882812 7.761719 L 12.757812 7.761719 L 12.757812 -134.660156 L 49.882812 -134.660156 L 49.882812 -111.507812 L 42.121094 -111.507812 L 42.121094 -119.269531 L 42.660156 -119.269531 L 42.660156 -111.507812 L 36.40625 -116.105469 C 41.578125 -123.140625 47.582031 -128.550781 54.421875 -132.339844 C 61.441406 -136.226562 69.582031 -138.171875 78.839844 -138.171875 C 95.480469 -138.171875 108.21875 -132.878906 117.0625 -122.289062 C 125.554688 -112.117188 129.800781 -96.914062 129.800781 -76.679688 L 129.800781 7.761719 Z M 122.039062 -7.761719 L 122.039062 0 L 114.277344 0 L 114.277344 -76.679688 C 114.277344 -93.164062 111.234375 -105.050781 105.144531 -112.339844 C 99.40625 -119.210938 90.636719 -122.644531 78.839844 -122.644531 C 72.257812 -122.644531 66.625 -121.351562 61.945312 -118.757812 C 57.085938 -116.066406 52.742188 -112.117188 48.914062 -106.910156 L 46.585938 -103.746094 L 34.355469 -103.746094 L 34.355469 -126.898438 L 42.121094 -126.898438 L 42.121094 -119.136719 L 20.519531 -119.136719 L 20.519531 -126.898438 L 28.28125 -126.898438 L 28.28125 0 L 20.519531 0 L 20.519531 -7.761719 L 42.121094 -7.761719 L 42.121094 0 L 34.355469 0 L 34.355469 -62.371094 C 34.355469 -80.007812 37.113281 -93.402344 42.625 -102.554688 C 48.902344 -112.980469 59.265625 -118.191406 73.710938 -118.191406 C 86.546875 -118.191406 95.667969 -114.167969 101.078125 -106.117188 C 105.828125 -99.050781 108.203125 -88.335938 108.203125 -73.980469 L 108.203125 0 L 100.4375 0 L 100.4375 -7.761719 Z M 122.039062 -7.761719 "/></g></g></g><g fill="#333333" fill-opacity="1"><g transform="translate(229.220686, 232.61158)"><g><path d="M 50.960938 -172.527344 L 50.960938 -126.898438 L 43.199219 -126.898438 L 43.199219 -134.660156 L 73.640625 -134.660156 L 73.640625 -99.15625 L 43.199219 -99.15625 L 43.199219 -106.917969 L 50.960938 -106.917969 L 50.960938 7.761719 L 13.835938 7.761719 L 13.835938 -106.917969 L 21.601562 -106.917969 L 21.601562 -99.15625 L 0.609375 -99.15625 L 0.609375 -134.660156 L 21.601562 -134.660156 L 21.601562 -126.898438 L 13.835938 -126.898438 L 13.835938 -180.289062 L 50.960938 -180.289062 Z M 35.4375 -172.527344 L 43.199219 -172.527344 L 43.199219 -164.765625 L 21.601562 -164.765625 L 21.601562 -172.527344 L 29.363281 -172.527344 L 29.363281 -119.136719 L 8.371094 -119.136719 L 8.371094 -126.898438 L 16.132812 -126.898438 L 16.132812 -106.917969 L 8.371094 -106.917969 L 8.371094 -114.679688 L 29.363281 -114.679688 L 29.363281 0 L 21.601562 0 L 21.601562 -7.761719 L 43.199219 -7.761719 L 43.199219 0 L 35.4375 0 L 35.4375 -114.679688 L 65.878906 -114.679688 L 65.878906 -106.917969 L 58.117188 -106.917969 L 58.117188 -126.898438 L 65.878906 -126.898438 L 65.878906 -119.136719 L 35.4375 -119.136719 Z M 35.4375 -172.527344 "/></g></g></g><g fill="#333333" fill-opacity="1"><g transform="translate(304.549861, 232.61158)"><g><path d="M 130.949219 -51.097656 L 31.320312 -51.097656 L 31.320312 -58.859375 L 39.078125 -59.082031 C 39.378906 -48.554688 42.753906 -40.105469 49.195312 -33.734375 C 55.605469 -27.398438 63.503906 -24.230469 72.898438 -24.230469 C 79.433594 -24.230469 85.152344 -25.867188 90.058594 -29.136719 C 95.246094 -32.597656 100.148438 -38.382812 104.761719 -46.496094 L 108.613281 -53.269531 L 140.292969 -35.101562 L 136.699219 -28.441406 C 129.925781 -15.890625 120.960938 -6.148438 109.800781 0.789062 C 98.558594 7.777344 85.714844 11.273438 71.277344 11.273438 C 57.378906 11.273438 45.03125 7.910156 34.238281 1.191406 C 23.449219 -5.527344 15.253906 -14.539062 9.648438 -25.847656 C 4.160156 -36.925781 1.417969 -48.917969 1.417969 -61.828125 C 1.417969 -75.953125 4.140625 -88.761719 9.589844 -100.253906 C 15.179688 -112.046875 23.289062 -121.3125 33.910156 -128.054688 C 44.539062 -134.796875 56.816406 -138.171875 70.738281 -138.171875 C 84.296875 -138.171875 96.339844 -134.847656 106.875 -128.199219 C 117.417969 -121.546875 125.441406 -112.410156 130.945312 -100.792969 C 136.300781 -89.480469 138.980469 -76.851562 138.980469 -62.910156 C 138.980469 -61.328125 138.871094 -59.65625 138.652344 -57.898438 L 137.800781 -51.097656 Z M 130.949219 -66.621094 L 130.949219 -58.859375 L 123.246094 -59.820312 C 123.386719 -60.941406 123.457031 -61.972656 123.457031 -62.910156 C 123.457031 -74.527344 121.273438 -84.9375 116.914062 -94.144531 C 112.695312 -103.046875 106.589844 -110.023438 98.589844 -115.070312 C 90.585938 -120.121094 81.304688 -122.644531 70.738281 -122.644531 C 59.824219 -122.644531 50.320312 -120.078125 42.230469 -114.945312 C 34.132812 -109.804688 27.929688 -102.691406 23.617188 -93.601562 C 19.167969 -84.214844 16.941406 -73.625 16.941406 -61.828125 C 16.941406 -51.339844 19.148438 -41.644531 23.558594 -32.742188 C 27.855469 -24.070312 34.152344 -17.152344 42.441406 -11.988281 C 50.726562 -6.832031 60.339844 -4.253906 71.277344 -4.253906 C 82.761719 -4.253906 92.871094 -6.96875 101.605469 -12.398438 C 110.425781 -17.882812 117.570312 -25.6875 123.039062 -35.816406 L 129.867188 -32.128906 L 126.007812 -25.394531 L 107.648438 -35.925781 L 111.507812 -42.660156 L 118.257812 -38.824219 C 112.429688 -28.574219 105.902344 -21.042969 98.667969 -16.222656 C 91.15625 -11.210938 82.566406 -8.707031 72.898438 -8.707031 C 59.253906 -8.707031 47.714844 -13.371094 38.28125 -22.695312 C 28.886719 -31.984375 23.980469 -43.964844 23.558594 -58.636719 L 23.332031 -66.621094 Z M 100.632812 -75.832031 C 99.15625 -83.945312 95.589844 -90.46875 89.9375 -95.398438 C 84.378906 -100.242188 78.070312 -102.667969 71.007812 -102.667969 C 64.050781 -102.667969 57.417969 -100.0625 51.113281 -94.859375 C 44.890625 -89.722656 41.210938 -83.449219 40.070312 -76.039062 L 32.398438 -77.21875 L 32.398438 -84.980469 L 108.269531 -84.980469 L 108.269531 -77.21875 Z M 117.570312 -69.457031 L 23.351562 -69.457031 L 24.726562 -78.398438 C 26.46875 -89.707031 31.96875 -99.183594 41.226562 -106.828125 C 50.402344 -114.402344 60.328125 -118.191406 71.007812 -118.191406 C 81.949219 -118.191406 91.660156 -114.496094 100.140625 -107.101562 C 108.527344 -99.789062 113.78125 -90.292969 115.90625 -78.609375 Z M 117.570312 -69.457031 "/></g></g></g><g fill="#333333" fill-opacity="1"><g transform="translate(455.208272, 232.61158)"><g><path d="M 105.636719 -108.808594 L 105.636719 -134.660156 L 142.761719 -134.660156 L 142.761719 4.589844 C 142.761719 28.03125 136.027344 46.230469 122.5625 59.1875 C 109.179688 72.0625 92.625 78.5 72.898438 78.5 C 52.878906 78.5 36.316406 72.460938 23.222656 60.378906 C 9.992188 48.175781 3.175781 32.242188 2.769531 12.578125 L 2.605469 4.65625 L 39.890625 4.65625 L 39.890625 12.417969 C 39.890625 21.378906 42.835938 28.695312 48.722656 34.371094 C 54.6875 40.121094 62.746094 42.996094 72.898438 42.996094 C 83.78125 42.996094 91.867188 39.796875 97.15625 33.394531 C 102.808594 26.550781 105.636719 14.519531 105.636719 -2.699219 L 105.636719 -17.550781 L 113.398438 -17.550781 L 113.398438 -9.789062 L 112.859375 -9.789062 L 112.859375 -17.550781 L 118.984375 -12.785156 C 113.203125 -5.347656 105.851562 0.523438 96.929688 4.832031 C 88.03125 9.125 78.671875 11.273438 68.847656 11.273438 C 55.621094 11.273438 43.777344 7.886719 33.3125 1.117188 C 22.957031 -5.585938 14.894531 -14.648438 9.132812 -26.070312 C 3.449219 -37.339844 0.609375 -49.617188 0.609375 -62.910156 C 0.609375 -76.578125 3.546875 -89.144531 9.429688 -100.605469 C 15.382812 -112.210938 23.632812 -121.359375 34.179688 -128.054688 C 44.808594 -134.796875 56.636719 -138.171875 69.660156 -138.171875 C 79.726562 -138.171875 89.007812 -135.996094 97.496094 -131.648438 C 105.921875 -127.332031 113.097656 -121.289062 119.03125 -113.519531 L 112.859375 -108.808594 L 112.859375 -116.570312 L 113.398438 -116.570312 L 113.398438 -108.808594 Z M 121.160156 -101.046875 L 109.019531 -101.046875 L 106.6875 -104.101562 C 102.179688 -110.007812 96.757812 -114.585938 90.421875 -117.828125 C 84.152344 -121.039062 77.230469 -122.644531 69.660156 -122.644531 C 59.644531 -122.644531 50.589844 -120.078125 42.5 -114.945312 C 34.328125 -109.757812 27.910156 -102.617188 23.242188 -93.519531 C 18.503906 -84.28125 16.132812 -74.078125 16.132812 -62.910156 C 16.132812 -52.082031 18.421875 -42.132812 22.996094 -33.0625 C 27.492188 -24.144531 33.746094 -17.09375 41.746094 -11.917969 C 49.644531 -6.808594 58.675781 -4.253906 68.847656 -4.253906 C 76.304688 -4.253906 83.414062 -5.886719 90.179688 -9.152344 C 96.917969 -12.402344 102.433594 -16.792969 106.730469 -22.316406 L 109.0625 -25.3125 L 121.160156 -25.3125 L 121.160156 -2.699219 C 121.160156 18.242188 117.148438 33.570312 109.125 43.285156 C 100.730469 53.441406 88.65625 58.523438 72.898438 58.523438 C 58.570312 58.523438 46.921875 54.199219 37.949219 45.546875 C 28.894531 36.820312 24.367188 25.78125 24.367188 12.417969 L 32.128906 12.417969 L 32.128906 20.183594 L 10.53125 20.183594 L 10.53125 12.417969 L 18.289062 12.261719 C 18.605469 27.515625 23.757812 39.753906 33.746094 48.96875 C 43.871094 58.308594 56.921875 62.976562 72.898438 62.976562 C 88.453125 62.976562 101.417969 57.984375 111.796875 48 C 122.089844 38.097656 127.234375 23.628906 127.234375 4.589844 L 127.234375 -126.898438 L 135 -126.898438 L 135 -119.136719 L 113.398438 -119.136719 L 113.398438 -126.898438 L 121.160156 -126.898438 Z M 71.820312 -102.667969 C 65.75 -102.667969 60.199219 -101.082031 55.160156 -97.917969 C 50.050781 -94.707031 45.976562 -90.167969 42.933594 -84.308594 C 39.828125 -78.320312 38.273438 -71.816406 38.273438 -64.800781 C 38.273438 -52.828125 41.53125 -42.976562 48.054688 -35.242188 C 54.242188 -27.902344 62.253906 -24.230469 72.089844 -24.230469 C 82.496094 -24.230469 90.792969 -27.832031 96.984375 -35.03125 C 103.472656 -42.574219 106.714844 -52.410156 106.714844 -64.53125 C 106.714844 -75.984375 103.410156 -85.238281 96.800781 -92.296875 C 90.324219 -99.210938 81.996094 -102.667969 71.820312 -102.667969 Z M 71.820312 -118.191406 C 86.480469 -118.191406 98.585938 -113.097656 108.128906 -102.910156 C 117.539062 -92.867188 122.242188 -80.074219 122.242188 -64.53125 C 122.242188 -48.570312 117.746094 -35.363281 108.753906 -24.910156 C 99.464844 -14.109375 87.246094 -8.707031 72.089844 -8.707031 C 57.445312 -8.707031 45.476562 -14.21875 36.183594 -25.234375 C 27.226562 -35.859375 22.746094 -49.050781 22.746094 -64.800781 C 22.746094 -74.34375 24.882812 -83.230469 29.15625 -91.460938 C 33.492188 -99.820312 39.40625 -106.351562 46.898438 -111.0625 C 54.460938 -115.816406 62.769531 -118.191406 71.820312 -118.191406 Z M 71.820312 -118.191406 "/></g></g></g><g fill="#333333" fill-opacity="1"><g transform="translate(622.33632, 232.61158)"><g><path d="M 74.183594 -98.550781 C 72.28125 -99.976562 70.523438 -101.148438 68.914062 -102.070312 C 68.214844 -102.46875 67.203125 -102.667969 65.878906 -102.667969 C 63.230469 -102.667969 60.96875 -102.121094 59.09375 -101.027344 C 57.179688 -99.90625 55.507812 -98.132812 54.078125 -95.695312 C 50.558594 -89.710938 48.800781 -79.410156 48.800781 -64.800781 L 48.800781 7.761719 L 11.675781 7.761719 L 11.675781 -134.660156 L 48.800781 -134.660156 L 48.800781 -113.128906 L 41.039062 -113.128906 L 41.039062 -120.890625 L 41.578125 -120.890625 L 41.578125 -113.128906 L 35.351562 -117.761719 C 41.234375 -125.675781 46.691406 -131.027344 51.714844 -133.820312 C 56.9375 -136.71875 62.917969 -138.171875 69.660156 -138.171875 C 73.71875 -138.171875 77.800781 -137.503906 81.910156 -136.171875 C 85.777344 -134.917969 89.488281 -133.246094 93.035156 -131.160156 L 99.386719 -127.421875 L 81.5 -93.058594 Z M 83.496094 -110.96875 L 78.839844 -104.757812 L 71.953125 -108.34375 L 82.214844 -128.054688 L 89.097656 -124.46875 L 85.164062 -117.777344 C 82.589844 -119.289062 79.910156 -120.5 77.121094 -121.40625 C 74.566406 -122.234375 72.082031 -122.644531 69.660156 -122.644531 C 65.601562 -122.644531 62.132812 -121.847656 59.253906 -120.25 C 56.179688 -118.539062 52.363281 -114.621094 47.808594 -108.496094 L 45.480469 -105.367188 L 33.277344 -105.367188 L 33.277344 -126.898438 L 41.039062 -126.898438 L 41.039062 -119.136719 L 19.441406 -119.136719 L 19.441406 -126.898438 L 27.203125 -126.898438 L 27.203125 0 L 19.441406 0 L 19.441406 -7.761719 L 41.039062 -7.761719 L 41.039062 0 L 33.277344 0 L 33.277344 -64.800781 C 33.277344 -82.226562 35.75 -95.148438 40.691406 -103.5625 C 43.492188 -108.328125 47.015625 -111.949219 51.265625 -114.433594 C 55.558594 -116.9375 60.429688 -118.191406 65.878906 -118.191406 C 69.953125 -118.191406 73.53125 -117.308594 76.617188 -115.546875 C 78.785156 -114.308594 81.078125 -112.78125 83.496094 -110.96875 Z M 83.496094 -110.96875 "/></g></g></g><g fill="#333333" fill-opacity="1"><g transform="translate(723.315043, 232.61158)"><g><path d="M 106.988281 -108.808594 L 106.988281 -134.660156 L 144.109375 -134.660156 L 144.109375 7.761719 L 106.988281 7.761719 L 106.988281 -17.550781 L 114.75 -17.550781 L 114.75 -9.789062 L 114.207031 -9.789062 L 114.207031 -17.550781 L 120.285156 -12.71875 C 107.570312 3.273438 90.964844 11.273438 70.46875 11.273438 C 50.492188 11.273438 34.019531 3.917969 21.042969 -10.796875 C 8.320312 -25.222656 1.957031 -42.683594 1.957031 -63.179688 C 1.957031 -84.617188 8.390625 -102.421875 21.253906 -116.589844 C 34.3125 -130.976562 50.808594 -138.171875 70.738281 -138.171875 C 80.792969 -138.171875 90.105469 -136.003906 98.679688 -131.664062 C 107.207031 -127.351562 114.441406 -121.300781 120.378906 -113.519531 L 114.207031 -108.808594 L 114.207031 -116.570312 L 114.75 -116.570312 L 114.75 -108.808594 Z M 122.511719 -101.046875 L 110.367188 -101.046875 L 108.039062 -104.101562 C 103.539062 -109.996094 98.082031 -114.566406 91.667969 -117.8125 C 85.300781 -121.035156 78.324219 -122.644531 70.738281 -122.644531 C 55.390625 -122.644531 42.726562 -117.148438 32.746094 -106.15625 C 22.570312 -94.945312 17.480469 -80.621094 17.480469 -63.179688 C 17.480469 -46.59375 22.550781 -32.558594 32.6875 -21.0625 C 42.570312 -9.855469 55.164062 -4.253906 70.46875 -4.253906 C 85.972656 -4.253906 98.527344 -10.296875 108.132812 -22.378906 L 110.464844 -25.3125 L 122.511719 -25.3125 L 122.511719 0 L 114.75 0 L 114.75 -7.761719 L 136.347656 -7.761719 L 136.347656 0 L 128.585938 0 L 128.585938 -126.898438 L 136.347656 -126.898438 L 136.347656 -119.136719 L 114.75 -119.136719 L 114.75 -126.898438 L 122.511719 -126.898438 Z M 73.167969 -102.667969 C 63.941406 -102.667969 56.089844 -99.105469 49.621094 -91.980469 C 42.957031 -84.640625 39.621094 -75.578125 39.621094 -64.800781 C 39.621094 -53.011719 42.925781 -43.207031 49.535156 -35.382812 C 55.8125 -27.949219 63.78125 -24.230469 73.4375 -24.230469 C 83.875 -24.230469 92.191406 -27.761719 98.382812 -34.820312 C 104.839844 -42.175781 108.066406 -52.078125 108.066406 -64.53125 C 108.066406 -75.671875 104.777344 -84.867188 98.199219 -92.117188 C 91.820312 -99.148438 83.476562 -102.667969 73.167969 -102.667969 Z M 73.167969 -118.191406 C 88.0625 -118.191406 100.238281 -112.976562 109.699219 -102.550781 C 118.960938 -92.339844 123.589844 -79.667969 123.589844 -64.53125 C 123.589844 -48.179688 119.078125 -34.863281 110.054688 -24.578125 C 100.769531 -14 88.5625 -8.707031 73.4375 -8.707031 C 58.976562 -8.707031 47.054688 -14.261719 37.675781 -25.367188 C 28.621094 -36.082031 24.097656 -49.226562 24.097656 -64.800781 C 24.097656 -79.578125 28.773438 -92.117188 38.128906 -102.417969 C 47.679688 -112.933594 59.359375 -118.191406 73.167969 -118.191406 Z M 73.167969 -118.191406 "/></g></g></g><g fill="#333333" fill-opacity="1"><g transform="translate(889.633162, 232.61158)"><g><path d="M 12.21875 -230.511719 L 49.34375 -230.511719 L 49.34375 7.761719 L 12.21875 7.761719 Z M 27.742188 -214.984375 L 27.742188 -7.761719 L 33.816406 -7.761719 L 33.816406 -214.984375 Z M 27.742188 -214.984375 "/></g></g></g><g fill="#333333" fill-opacity="1"><g transform="translate(1.07285, 232.61158)"><g><path d="M 43.734375 -203.578125 L 43.734375 0 L 21.0625 0 L 21.0625 -203.578125 Z M 43.734375 -203.578125 "/></g></g></g><g fill="#333333" fill-opacity="1"><g transform="translate(76.132304, 232.61158)"><g><path d="M 122.046875 0 L 100.4375 0 L 100.4375 -73.984375 C 100.4375 -86.765625 98.5 -96.035156 94.625 -101.796875 C 90.757812 -107.554688 83.785156 -110.4375 73.703125 -110.4375 C 62.191406 -110.4375 54.050781 -106.472656 49.28125 -98.546875 C 44.507812 -90.628906 42.125 -78.570312 42.125 -62.375 L 42.125 0 L 20.515625 0 L 20.515625 -126.90625 L 42.125 -126.90625 L 42.125 -111.515625 L 42.65625 -111.515625 C 47.15625 -117.628906 52.328125 -122.304688 58.171875 -125.546875 C 64.023438 -128.785156 70.914062 -130.40625 78.84375 -130.40625 C 93.0625 -130.40625 103.816406 -126.039062 111.109375 -117.3125 C 118.398438 -108.582031 122.046875 -95.039062 122.046875 -76.6875 Z M 122.046875 0 "/></g></g></g><g fill="#333333" fill-opacity="1"><g transform="translate(229.220686, 232.61158)"><g><path d="M 43.203125 -172.53125 L 43.203125 -126.90625 L 65.875 -126.90625 L 65.875 -106.921875 L 43.203125 -106.921875 L 43.203125 0 L 21.59375 0 L 21.59375 -106.921875 L 8.375 -106.921875 L 8.375 -126.90625 L 21.59375 -126.90625 L 21.59375 -172.53125 Z M 43.203125 -172.53125 "/></g></g></g><g fill="#333333" fill-opacity="1"><g transform="translate(304.549861, 232.61158)"><g><path d="M 130.953125 -58.859375 L 31.3125 -58.859375 C 31.675781 -46.253906 35.816406 -36.035156 43.734375 -28.203125 C 51.660156 -20.378906 61.382812 -16.46875 72.90625 -16.46875 C 81 -16.46875 88.148438 -18.535156 94.359375 -22.671875 C 100.578125 -26.816406 106.296875 -33.476562 111.515625 -42.65625 L 129.875 -32.125 C 123.75 -20.789062 115.691406 -12.015625 105.703125 -5.796875 C 95.710938 0.410156 84.238281 3.515625 71.28125 3.515625 C 58.863281 3.515625 47.882812 0.546875 38.34375 -5.390625 C 28.800781 -11.335938 21.554688 -19.304688 16.609375 -29.296875 C 11.660156 -39.285156 9.1875 -50.128906 9.1875 -61.828125 C 9.1875 -74.785156 11.660156 -86.484375 16.609375 -96.921875 C 21.554688 -107.367188 28.707031 -115.5625 38.0625 -121.5 C 47.425781 -127.4375 58.316406 -130.40625 70.734375 -130.40625 C 82.796875 -130.40625 93.460938 -127.476562 102.734375 -121.625 C 112.003906 -115.78125 119.066406 -107.726562 123.921875 -97.46875 C 128.785156 -87.207031 131.21875 -75.6875 131.21875 -62.90625 C 131.21875 -61.644531 131.128906 -60.296875 130.953125 -58.859375 Z M 108.265625 -77.21875 C 106.460938 -87.113281 102.050781 -95.125 95.03125 -101.25 C 88.019531 -107.375 80.015625 -110.4375 71.015625 -110.4375 C 62.191406 -110.4375 53.910156 -107.238281 46.171875 -100.84375 C 38.429688 -94.457031 33.84375 -86.582031 32.40625 -77.21875 Z M 108.265625 -77.21875 "/></g></g></g><g fill="#333333" fill-opacity="1"><g transform="translate(455.208272, 232.61158)"><g><path d="M 113.40625 -108.8125 L 113.40625 -126.90625 L 135 -126.90625 L 135 4.59375 C 135 25.832031 129.054688 42.164062 117.171875 53.59375 C 105.296875 65.019531 90.539062 70.734375 72.90625 70.734375 C 54.90625 70.734375 40.097656 65.378906 28.484375 54.671875 C 16.867188 43.960938 10.882812 29.878906 10.53125 12.421875 L 32.125 12.421875 C 32.125 23.578125 35.859375 32.753906 43.328125 39.953125 C 50.804688 47.160156 60.664062 50.765625 72.90625 50.765625 C 86.21875 50.765625 96.296875 46.625 103.140625 38.34375 C 109.984375 30.0625 113.40625 16.378906 113.40625 -2.703125 L 113.40625 -17.546875 L 112.859375 -17.546875 C 107.816406 -11.066406 101.378906 -5.9375 93.546875 -2.15625 C 85.722656 1.625 77.488281 3.515625 68.84375 3.515625 C 57.144531 3.515625 46.707031 0.546875 37.53125 -5.390625 C 28.351562 -11.335938 21.195312 -19.394531 16.0625 -29.5625 C 10.9375 -39.726562 8.375 -50.84375 8.375 -62.90625 C 8.375 -75.332031 11.023438 -86.71875 16.328125 -97.0625 C 21.640625 -107.414062 28.972656 -115.5625 38.328125 -121.5 C 47.691406 -127.4375 58.132812 -130.40625 69.65625 -130.40625 C 78.476562 -130.40625 86.578125 -128.515625 93.953125 -124.734375 C 101.335938 -120.953125 107.640625 -115.644531 112.859375 -108.8125 Z M 71.8125 -110.4375 C 64.257812 -110.4375 57.332031 -108.453125 51.03125 -104.484375 C 44.726562 -100.523438 39.734375 -94.988281 36.046875 -87.875 C 32.359375 -80.769531 30.515625 -73.078125 30.515625 -64.796875 C 30.515625 -50.941406 34.382812 -39.421875 42.125 -30.234375 C 49.863281 -21.054688 59.851562 -16.46875 72.09375 -16.46875 C 84.875 -16.46875 95.132812 -20.96875 102.875 -29.96875 C 110.613281 -38.96875 114.484375 -50.488281 114.484375 -64.53125 C 114.484375 -78.03125 110.476562 -89.054688 102.46875 -97.609375 C 94.457031 -106.160156 84.238281 -110.4375 71.8125 -110.4375 Z M 71.8125 -110.4375 "/></g></g></g><g fill="#333333" fill-opacity="1"><g transform="translate(622.33632, 232.61158)"><g><path d="M 78.84375 -104.765625 C 76.675781 -106.378906 74.648438 -107.726562 72.765625 -108.8125 C 70.878906 -109.894531 68.582031 -110.4375 65.875 -110.4375 C 57.78125 -110.4375 51.617188 -106.832031 47.390625 -99.625 C 43.160156 -92.425781 41.046875 -80.816406 41.046875 -64.796875 L 41.046875 0 L 19.4375 0 L 19.4375 -126.90625 L 41.046875 -126.90625 L 41.046875 -113.125 L 41.578125 -113.125 C 46.796875 -120.144531 51.429688 -124.78125 55.484375 -127.03125 C 59.535156 -129.28125 64.257812 -130.40625 69.65625 -130.40625 C 72.894531 -130.40625 76.179688 -129.863281 79.515625 -128.78125 C 82.847656 -127.707031 86.039062 -126.269531 89.09375 -124.46875 Z M 78.84375 -104.765625 "/></g></g></g><g fill="#333333" fill-opacity="1"><g transform="translate(723.315043, 232.61158)"><g><path d="M 114.75 -108.8125 L 114.75 -126.90625 L 136.34375 -126.90625 L 136.34375 0 L 114.75 0 L 114.75 -17.546875 L 114.203125 -17.546875 C 103.046875 -3.503906 88.46875 3.515625 70.46875 3.515625 C 52.832031 3.515625 38.296875 -2.960938 26.859375 -15.921875 C 15.429688 -28.890625 9.71875 -44.644531 9.71875 -63.1875 C 9.71875 -82.625 15.476562 -98.6875 27 -111.375 C 38.519531 -124.0625 53.097656 -130.40625 70.734375 -130.40625 C 79.554688 -130.40625 87.703125 -128.515625 95.171875 -124.734375 C 102.640625 -120.953125 108.984375 -115.644531 114.203125 -108.8125 Z M 73.171875 -110.4375 C 61.648438 -110.4375 51.882812 -106.023438 43.875 -97.203125 C 35.863281 -88.378906 31.859375 -77.578125 31.859375 -64.796875 C 31.859375 -51.117188 35.769531 -39.644531 43.59375 -30.375 C 51.425781 -21.101562 61.375 -16.46875 73.4375 -16.46875 C 86.21875 -16.46875 96.476562 -20.878906 104.21875 -29.703125 C 111.957031 -38.523438 115.828125 -50.132812 115.828125 -64.53125 C 115.828125 -77.664062 111.863281 -88.597656 103.9375 -97.328125 C 96.019531 -106.066406 85.765625 -110.4375 73.171875 -110.4375 Z M 73.171875 -110.4375 "/></g></g></g><g fill="#333333" fill-opacity="1"><g transform="translate(889.633162, 232.61158)"><g><path d="M 41.578125 -222.75 L 41.578125 0 L 19.984375 0 L 19.984375 -222.75 Z M 41.578125 -222.75 "/></g></g></g></g></g></svg>