<svg xmlns="http://www.w3.org/2000/svg" xmlns:xlink="http://www.w3.org/1999/xlink" width="1920" zoomAndPan="magnify" viewBox="0 0 1440 809.999993" height="1080" preserveAspectRatio="xMidYMid meet" version="1.0"><defs><g/></defs><g fill="#333333" fill-opacity="1"><g transform="translate(806.363613, 660.939337)"><g><path d="M -11.734375 -236.207031 C -4.234375 -238.089844 2.441406 -236.65625 8.289062 -231.914062 C 13.140625 -227.980469 17.519531 -221.53125 21.421875 -212.570312 C 25.175781 -204.378906 29.203125 -193.414062 33.496094 -179.667969 C 37.738281 -166.089844 41.90625 -151.148438 45.996094 -134.839844 C 49.554688 -120.648438 52.523438 -106.929688 54.902344 -93.6875 C 57.285156 -80.433594 59.097656 -67.96875 60.34375 -56.296875 C 61.757812 -43.347656 61.125 -33.625 58.449219 -27.128906 C 55.296875 -19.476562 49.667969 -14.632812 41.5625 -12.601562 C 33.875 -10.671875 27.140625 -11.746094 21.363281 -15.820312 C 16.253906 -19.421875 11.789062 -25.949219 7.964844 -35.398438 C 4.824219 -42.863281 1.335938 -52.761719 -2.496094 -65.097656 C -6.296875 -77.332031 -9.949219 -90.433594 -13.453125 -104.398438 C -18.289062 -123.671875 -22.09375 -141.339844 -24.863281 -157.402344 C -27.652344 -173.554688 -29.375 -187.179688 -30.035156 -198.269531 C -30.53125 -208.566406 -29.703125 -216.597656 -27.539062 -222.367188 C -24.816406 -229.632812 -19.546875 -234.246094 -11.734375 -236.207031 Z M -8.066406 -221.597656 C -10.773438 -220.917969 -12.5625 -219.414062 -13.433594 -217.082031 C -14.871094 -213.253906 -15.390625 -207.28125 -15 -199.164062 C -14.371094 -188.628906 -12.714844 -175.5625 -10.019531 -159.964844 C -7.3125 -144.269531 -3.585938 -126.972656 1.15625 -108.0625 C 4.589844 -94.367188 8.167969 -81.535156 11.886719 -69.566406 C 15.574219 -57.699219 18.921875 -48.191406 21.929688 -41.050781 C 24.644531 -34.335938 27.347656 -30.03125 30.039062 -28.132812 C 32.058594 -26.710938 34.675781 -26.402344 37.898438 -27.210938 C 41.089844 -28.011719 43.300781 -29.894531 44.523438 -32.867188 C 46.222656 -36.992188 46.503906 -44.269531 45.367188 -54.699219 C 44.15625 -66.015625 42.394531 -78.125 40.078125 -91.023438 C 37.761719 -103.933594 34.863281 -117.316406 31.386719 -131.175781 C 27.363281 -147.207031 23.277344 -161.871094 19.121094 -175.175781 C 15.015625 -188.3125 11.179688 -198.769531 7.613281 -206.550781 C 4.6875 -213.269531 1.75 -217.824219 -1.199219 -220.214844 C -3.148438 -221.796875 -5.4375 -222.257812 -8.066406 -221.597656 Z M -8.066406 -221.597656 "/></g></g></g><g fill="#fdc23d" fill-opacity="1"><g transform="translate(806.363613, 660.939337)"><g><path d="M -9.90625 -228.90625 C -4.84375 -230.175781 -0.359375 -229.226562 3.546875 -226.0625 C 7.453125 -222.894531 11.109375 -217.394531 14.515625 -209.5625 C 18.179688 -201.582031 22.113281 -190.867188 26.3125 -177.421875 C 30.507812 -163.972656 34.640625 -149.164062 38.703125 -133 C 42.210938 -118.976562 45.140625 -105.425781 47.484375 -92.34375 C 49.835938 -79.269531 51.625 -66.984375 52.84375 -55.484375 C 54.125 -43.804688 53.671875 -35.304688 51.484375 -29.984375 C 49.296875 -24.671875 45.378906 -21.304688 39.734375 -19.890625 C 34.273438 -18.523438 29.597656 -19.21875 25.703125 -21.96875 C 21.804688 -24.726562 18.21875 -30.148438 14.9375 -38.234375 C 11.863281 -45.523438 8.445312 -55.21875 4.6875 -67.3125 C 0.925781 -79.414062 -2.6875 -92.382812 -6.15625 -106.21875 C -10.945312 -125.3125 -14.707031 -142.796875 -17.4375 -158.671875 C -20.175781 -174.546875 -21.867188 -187.894531 -22.515625 -198.71875 C -22.960938 -207.925781 -22.285156 -214.925781 -20.484375 -219.71875 C -18.691406 -224.519531 -15.164062 -227.582031 -9.90625 -228.90625 Z M -9.90625 -228.90625 "/></g></g></g><g fill="#333333" fill-opacity="1"><g transform="translate(846.496836, 644.310828)"><g><path d="M 0.300781 -28.316406 C 0.300781 -37.574219 4.792969 -49.484375 13.773438 -64.050781 C 22.261719 -77.824219 35.914062 -94.878906 54.722656 -115.222656 C 73.363281 -135.382812 98.140625 -159.203125 129.054688 -186.683594 L 134.058594 -181.054688 L 126.527344 -181.054688 L 126.527344 -181.957031 L 134.058594 -181.957031 L 135.78125 -174.625 C 125.410156 -172.183594 114.035156 -169.847656 101.652344 -167.617188 C 89.246094 -165.378906 77.289062 -163.597656 65.78125 -162.273438 C 54.148438 -160.933594 44.472656 -160.265625 36.753906 -160.265625 C 25.335938 -160.265625 16.671875 -162.324219 10.761719 -166.433594 C 3.988281 -171.148438 0.601562 -177.925781 0.601562 -186.777344 C 0.601562 -193.082031 2.210938 -198.714844 5.429688 -203.679688 C 8.628906 -208.605469 13.691406 -212.679688 20.628906 -215.898438 C 30.152344 -220.230469 43.25 -223.601562 59.925781 -226.011719 C 76.25 -228.375 93.429688 -229.554688 111.464844 -229.554688 C 125.691406 -229.554688 137.449219 -228.488281 146.742188 -226.351562 C 157.03125 -223.984375 164.820312 -219.847656 170.101562 -213.9375 C 175.59375 -207.789062 178.339844 -199.636719 178.339844 -189.488281 C 178.339844 -182.144531 175.15625 -172.828125 168.785156 -161.535156 C 162.839844 -151.003906 154.152344 -138.835938 142.71875 -125.035156 C 131.429688 -111.40625 117.667969 -96.425781 101.441406 -80.097656 C 85.269531 -63.820312 66.882812 -46.496094 46.285156 -28.121094 L 41.273438 -33.742188 L 48.804688 -33.742188 L 48.804688 -32.835938 L 41.273438 -32.835938 L 38.269531 -39.742188 C 47.867188 -43.914062 58.828125 -47.609375 71.15625 -50.820312 C 83.347656 -53.996094 95.640625 -56.554688 108.035156 -58.503906 C 120.574219 -60.472656 131.859375 -61.457031 141.890625 -61.457031 C 152.96875 -61.457031 161.230469 -59.464844 166.671875 -55.484375 C 172.84375 -50.964844 175.929688 -43.917969 175.929688 -34.34375 C 175.929688 -24.257812 172.003906 -16.152344 164.144531 -10.027344 C 157.28125 -4.675781 147.746094 -0.78125 135.535156 1.660156 C 126.101562 3.507812 116.429688 5.042969 106.511719 6.269531 C 96.601562 7.496094 86.992188 8.363281 77.683594 8.875 C 68.410156 9.386719 59.988281 9.640625 52.417969 9.640625 C 36.53125 9.640625 24.164062 6.90625 15.320312 1.433594 C 5.308594 -4.757812 0.300781 -14.675781 0.300781 -28.316406 Z M 15.363281 -28.316406 C 15.363281 -20.269531 17.988281 -14.625 23.242188 -11.375 C 29.660156 -7.40625 39.386719 -5.421875 52.417969 -5.421875 C 59.710938 -5.421875 67.859375 -5.667969 76.859375 -6.164062 C 85.824219 -6.65625 95.09375 -7.496094 104.664062 -8.679688 C 114.230469 -9.863281 123.535156 -11.339844 132.582031 -13.109375 C 142.460938 -15.085938 149.894531 -18.015625 154.882812 -21.90625 C 158.875 -25.015625 160.867188 -29.164062 160.867188 -34.34375 C 160.867188 -38.824219 159.839844 -41.820312 157.777344 -43.328125 C 154.984375 -45.371094 149.6875 -46.394531 141.890625 -46.394531 C 132.640625 -46.394531 122.136719 -45.46875 110.371094 -43.621094 C 98.46875 -41.753906 86.660156 -39.292969 74.953125 -36.242188 C 63.378906 -33.226562 53.15625 -29.789062 44.273438 -25.929688 L 33.742188 -21.351562 L 33.742188 -37.113281 L 36.257812 -39.359375 C 56.628906 -57.535156 74.796875 -74.652344 90.757812 -90.714844 C 106.664062 -106.71875 120.117188 -121.363281 131.121094 -134.644531 C 141.980469 -147.753906 150.160156 -159.1875 155.664062 -168.9375 C 160.742188 -177.933594 163.277344 -184.78125 163.277344 -189.488281 C 163.277344 -195.804688 161.808594 -200.609375 158.867188 -203.898438 C 155.714844 -207.429688 150.546875 -210.019531 143.367188 -211.671875 C 135.183594 -213.550781 124.550781 -214.492188 111.464844 -214.492188 C 94.152344 -214.492188 77.691406 -213.363281 62.082031 -211.105469 C 46.824219 -208.898438 35.121094 -205.941406 26.96875 -202.238281 C 22.660156 -200.234375 19.691406 -197.984375 18.066406 -195.480469 C 16.464844 -193.011719 15.664062 -190.109375 15.664062 -186.777344 C 15.664062 -183.175781 16.898438 -180.515625 19.363281 -178.800781 C 22.691406 -176.484375 28.488281 -175.328125 36.753906 -175.328125 C 43.894531 -175.328125 52.996094 -175.964844 64.058594 -177.238281 C 75.246094 -178.523438 86.886719 -180.257812 98.980469 -182.441406 C 111.101562 -184.625 122.21875 -186.90625 132.332031 -189.289062 L 141.589844 -191.464844 L 141.589844 -177.671875 L 139.0625 -175.421875 C 108.515625 -148.273438 84.089844 -124.796875 65.78125 -104.996094 C 47.632812 -85.371094 34.574219 -69.085938 26.59375 -56.148438 C 19.109375 -44.003906 15.363281 -34.726562 15.363281 -28.316406 Z M 15.363281 -28.316406 "/></g></g></g><g fill="#3f9cbb" fill-opacity="1"><g transform="translate(846.496836, 644.310828)"><g><path d="M 7.828125 -28.3125 C 7.828125 -36.144531 11.941406 -46.738281 20.171875 -60.09375 C 28.410156 -73.445312 41.769531 -90.113281 60.25 -110.09375 C 78.726562 -130.082031 103.332031 -153.734375 134.0625 -181.046875 L 134.0625 -181.953125 C 123.8125 -179.546875 112.5625 -177.238281 100.3125 -175.03125 C 88.0625 -172.820312 76.265625 -171.0625 64.921875 -169.75 C 53.578125 -168.445312 44.1875 -167.796875 36.75 -167.796875 C 26.90625 -167.796875 19.675781 -169.398438 15.0625 -172.609375 C 10.445312 -175.828125 8.140625 -180.550781 8.140625 -186.78125 C 8.140625 -191.59375 9.34375 -195.859375 11.75 -199.578125 C 14.15625 -203.296875 18.171875 -206.457031 23.796875 -209.0625 C 32.628906 -213.082031 45.03125 -216.242188 61 -218.546875 C 76.96875 -220.859375 93.789062 -222.015625 111.46875 -222.015625 C 125.125 -222.015625 136.316406 -221.007812 145.046875 -219 C 153.785156 -217 160.265625 -213.640625 164.484375 -208.921875 C 168.703125 -204.203125 170.8125 -197.722656 170.8125 -189.484375 C 170.8125 -183.460938 167.945312 -175.378906 162.21875 -165.234375 C 156.5 -155.085938 148.066406 -143.285156 136.921875 -129.828125 C 125.773438 -116.378906 112.164062 -101.570312 96.09375 -85.40625 C 80.03125 -69.238281 61.753906 -52.015625 41.265625 -33.734375 L 41.265625 -32.84375 C 50.503906 -36.851562 61.097656 -40.414062 73.046875 -43.53125 C 85.003906 -46.644531 97.054688 -49.15625 109.203125 -51.0625 C 121.347656 -52.96875 132.242188 -53.921875 141.890625 -53.921875 C 151.328125 -53.921875 158.101562 -52.414062 162.21875 -49.40625 C 166.34375 -46.394531 168.40625 -41.375 168.40625 -34.34375 C 168.40625 -26.707031 165.441406 -20.578125 159.515625 -15.953125 C 153.585938 -11.335938 145.101562 -7.925781 134.0625 -5.71875 C 124.820312 -3.914062 115.332031 -2.410156 105.59375 -1.203125 C 95.851562 0.00390625 86.410156 0.859375 77.265625 1.359375 C 68.128906 1.859375 59.847656 2.109375 52.421875 2.109375 C 37.960938 2.109375 26.914062 -0.25 19.28125 -4.96875 C 11.644531 -9.6875 7.828125 -17.46875 7.828125 -28.3125 Z M 7.828125 -28.3125 "/></g></g></g><g fill="#333333" fill-opacity="1"><g transform="translate(586.475393, 624.965239)"><g><path d="M 89.140625 26.570312 C 61.460938 21.457031 42.785156 9.679688 33.121094 -8.761719 C 23.78125 -26.578125 22.296875 -52.734375 28.664062 -87.222656 C 30.734375 -98.429688 33.199219 -109.820312 36.058594 -121.390625 C 38.921875 -132.960938 42.007812 -144.082031 45.324219 -154.746094 C 48.671875 -165.519531 52.011719 -174.8125 55.351562 -182.621094 C 59.09375 -191.628906 63.78125 -198.582031 69.414062 -203.484375 C 75.984375 -209.199219 84.3125 -211.128906 94.394531 -209.265625 C 102.492188 -207.769531 108.425781 -204.007812 112.203125 -197.980469 C 115.839844 -192.167969 116.808594 -184.648438 115.101562 -175.421875 C 114.179688 -170.425781 112.253906 -164.089844 109.324219 -156.414062 L 100.183594 -132.65625 C 96.890625 -124.148438 93.738281 -115.570312 90.726562 -106.917969 C 87.808594 -98.550781 85.675781 -90.703125 84.324219 -83.378906 C 80.996094 -65.359375 81.308594 -52.648438 85.261719 -45.246094 C 88.902344 -38.429688 95.460938 -34.144531 104.929688 -32.398438 C 113.734375 -30.773438 120.800781 -32.714844 126.125 -38.230469 C 132.269531 -44.59375 136.902344 -56.214844 140.015625 -73.097656 C 141.035156 -78.605469 141.957031 -85.765625 142.789062 -94.574219 C 143.636719 -103.578125 144.457031 -112.992188 145.253906 -122.816406 L 147.539062 -150.140625 C 148.285156 -158.738281 149.0625 -165.226562 149.875 -169.613281 C 151.746094 -179.761719 155.152344 -187.261719 160.085938 -192.113281 C 165.753906 -197.683594 172.886719 -199.675781 181.476562 -198.089844 C 190.613281 -196.402344 197.25 -192.117188 201.386719 -185.238281 C 205.101562 -179.054688 206.851562 -170.867188 206.632812 -160.667969 C 206.632812 -152.789062 206.140625 -143.363281 205.15625 -132.394531 C 204.179688 -121.519531 202.875 -110.246094 201.234375 -98.578125 C 199.597656 -86.925781 197.839844 -76.007812 195.960938 -65.828125 C 191.386719 -41.054688 184.789062 -21.378906 176.171875 -6.804688 C 167.09375 8.542969 155.253906 18.90625 140.648438 24.285156 C 126.425781 29.523438 109.257812 30.285156 89.140625 26.570312 Z M 91.878906 11.757812 C 109.285156 14.972656 123.808594 14.4375 135.441406 10.152344 C 146.695312 6.007812 155.949219 -2.199219 163.207031 -14.472656 C 170.917969 -27.511719 176.898438 -45.542969 181.148438 -68.566406 C 182.988281 -78.53125 184.714844 -89.234375 186.320312 -100.671875 C 187.921875 -112.09375 189.203125 -123.117188 190.152344 -133.738281 C 191.097656 -144.265625 191.570312 -153.347656 191.574219 -160.988281 C 191.730469 -168.285156 190.695312 -173.785156 188.476562 -177.480469 C 186.671875 -180.476562 183.429688 -182.410156 178.742188 -183.277344 C 175.285156 -183.914062 172.585938 -183.277344 170.644531 -181.371094 C 167.972656 -178.742188 165.984375 -173.910156 164.6875 -166.878906 C 163.964844 -162.96875 163.253906 -156.96875 162.550781 -148.882812 L 160.269531 -121.601562 C 159.464844 -111.707031 158.636719 -102.230469 157.785156 -93.164062 C 156.914062 -83.90625 155.925781 -76.308594 154.828125 -70.359375 C 151.164062 -50.507812 145.207031 -36.308594 136.957031 -27.765625 C 127.890625 -18.375 116.300781 -14.980469 102.195312 -17.585938 C 87.96875 -20.210938 77.894531 -27.066406 71.976562 -38.148438 C 66.367188 -48.648438 65.546875 -64.636719 69.511719 -86.113281 C 71.003906 -94.195312 73.332031 -102.78125 76.5 -111.875 C 79.570312 -120.6875 82.777344 -129.414062 86.125 -138.0625 L 95.25 -161.785156 C 97.855469 -168.609375 99.535156 -174.0625 100.292969 -178.15625 C 101.285156 -183.542969 101 -187.484375 99.433594 -189.988281 C 98.003906 -192.273438 95.414062 -193.761719 91.660156 -194.453125 C 86.335938 -195.4375 82.21875 -194.65625 79.300781 -192.121094 C 75.445312 -188.765625 72.078125 -183.625 69.203125 -176.699219 C 66.066406 -169.367188 62.902344 -160.558594 59.707031 -150.277344 C 56.480469 -139.894531 53.472656 -129.058594 50.683594 -117.777344 C 47.894531 -106.496094 45.492188 -95.402344 43.476562 -84.488281 C 37.738281 -53.410156 38.734375 -30.5 46.460938 -15.753906 C 53.859375 -1.636719 69 7.53125 91.878906 11.757812 Z M 91.878906 11.757812 "/></g></g></g><g fill="#63c6a2" fill-opacity="1"><g transform="translate(586.475393, 624.965239)"><g><path d="M 90.515625 19.15625 C 65.234375 14.488281 48.320312 4.019531 39.78125 -12.25 C 31.25 -28.53125 30.007812 -53.066406 36.0625 -85.859375 C 38.101562 -96.910156 40.535156 -108.148438 43.359375 -119.578125 C 46.191406 -131.015625 49.238281 -141.992188 52.5 -152.515625 C 55.769531 -163.046875 59.03125 -172.09375 62.28125 -179.65625 C 65.582031 -187.613281 69.601562 -193.65625 74.34375 -197.78125 C 79.09375 -201.914062 85.320312 -203.273438 93.03125 -201.859375 C 98.945312 -200.765625 103.207031 -198.132812 105.8125 -193.96875 C 108.414062 -189.8125 109.039062 -184.082031 107.6875 -176.78125 C 106.851562 -172.238281 105.050781 -166.34375 102.28125 -159.09375 C 99.519531 -151.84375 96.476562 -143.929688 93.15625 -135.359375 C 89.832031 -126.785156 86.648438 -118.128906 83.609375 -109.390625 C 80.566406 -100.660156 78.335938 -92.441406 76.921875 -84.734375 C 73.273438 -64.984375 73.84375 -50.632812 78.625 -41.6875 C 83.40625 -32.738281 91.710938 -27.171875 103.546875 -24.984375 C 115.015625 -22.867188 124.347656 -25.535156 131.546875 -32.984375 C 138.742188 -40.441406 144.039062 -53.351562 147.4375 -71.71875 C 148.488281 -77.457031 149.4375 -84.84375 150.28125 -93.875 C 151.125 -102.90625 151.945312 -112.347656 152.75 -122.203125 C 153.550781 -132.066406 154.3125 -141.164062 155.03125 -149.5 C 155.757812 -157.84375 156.503906 -164.085938 157.265625 -168.234375 C 160.441406 -185.429688 168.050781 -192.914062 180.09375 -190.6875 C 187.007812 -189.414062 191.953125 -186.304688 194.921875 -181.359375 C 197.890625 -176.421875 199.285156 -169.578125 199.109375 -160.828125 C 199.097656 -153.066406 198.609375 -143.8125 197.640625 -133.0625 C 196.679688 -122.320312 195.390625 -111.175781 193.765625 -99.625 C 192.148438 -88.082031 190.414062 -77.269531 188.5625 -67.1875 C 184.144531 -43.289062 177.851562 -24.4375 169.6875 -10.625 C 161.519531 3.175781 150.972656 12.453125 138.046875 17.203125 C 125.117188 21.960938 109.273438 22.613281 90.515625 19.15625 Z M 90.515625 19.15625 "/></g></g></g><g fill="#333333" fill-opacity="1"><g transform="translate(400.149626, 630.836004)"><g><path d="M 111.191406 5.425781 C 90 5.425781 71.605469 1.089844 56.003906 -7.578125 C 40.222656 -16.34375 28.113281 -28.832031 19.683594 -45.035156 C 11.382812 -60.992188 7.230469 -79.828125 7.230469 -101.546875 C 7.230469 -126.003906 11.753906 -147.542969 20.796875 -166.160156 C 29.957031 -185.023438 42.925781 -199.757812 59.703125 -210.367188 C 76.503906 -220.988281 96.175781 -226.296875 118.722656 -226.296875 C 135.0625 -226.296875 149.898438 -223.316406 163.230469 -217.355469 C 176.535156 -211.40625 187.910156 -203.273438 197.351562 -192.964844 C 206.746094 -182.707031 213.972656 -170.847656 219.035156 -157.382812 C 224.078125 -143.972656 226.597656 -129.679688 226.597656 -114.503906 C 226.597656 -99.699219 224.683594 -85.964844 220.851562 -73.300781 C 216.925781 -60.320312 211.292969 -49.609375 203.960938 -41.164062 L 203.765625 -40.9375 L 187.578125 -25.058594 L 182.304688 -30.433594 L 188.121094 -25.648438 C 179.875 -15.617188 169.027344 -7.902344 155.582031 -2.5 C 142.425781 2.78125 127.628906 5.425781 111.191406 5.425781 Z M 111.191406 -9.640625 C 125.6875 -9.640625 138.613281 -11.921875 149.964844 -16.480469 C 161.027344 -20.925781 169.867188 -27.171875 176.484375 -35.21875 L 176.738281 -35.53125 L 192.996094 -51.480469 L 198.273438 -46.101562 L 192.585938 -51.042969 C 198.511719 -57.867188 203.125 -66.738281 206.429688 -77.664062 C 209.832031 -88.90625 211.53125 -101.183594 211.53125 -114.503906 C 211.53125 -127.855469 209.332031 -140.378906 204.933594 -152.082031 C 200.554688 -163.726562 194.324219 -173.964844 186.238281 -182.789062 C 178.203125 -191.5625 168.484375 -198.5 157.082031 -203.601562 C 145.703125 -208.6875 132.917969 -211.230469 118.722656 -211.230469 C 99.085938 -211.230469 82.097656 -206.699219 67.757812 -197.632812 C 53.398438 -188.550781 42.261719 -175.867188 34.347656 -159.578125 C 26.316406 -143.039062 22.296875 -123.695312 22.296875 -101.546875 C 22.296875 -82.285156 25.882812 -65.765625 33.050781 -51.992188 C 40.085938 -38.464844 50.175781 -28.050781 63.320312 -20.746094 C 76.648438 -13.34375 92.605469 -9.640625 111.191406 -9.640625 Z M 220.875 12.957031 C 212.171875 12.957031 203.398438 9.132812 194.550781 1.480469 C 186.601562 -5.394531 178.421875 -15.140625 170.007812 -27.761719 L 166.492188 -33.035156 L 193.027344 -58.261719 L 197.5625 -56.367188 C 211.820312 -50.410156 223.035156 -43.726562 231.207031 -36.316406 C 240.386719 -27.992188 244.980469 -19.300781 244.980469 -10.246094 C 244.980469 -4.289062 242.871094 1.011719 238.660156 5.660156 C 234.25 10.523438 228.324219 12.957031 220.875 12.957031 Z M 220.875 -2.109375 C 223.871094 -2.109375 226.078125 -2.890625 227.496094 -4.457031 C 229.105469 -6.234375 229.914062 -8.164062 229.914062 -10.246094 C 229.914062 -14.847656 226.96875 -19.820312 221.085938 -25.15625 C 214.191406 -31.40625 204.414062 -37.175781 191.753906 -42.46875 L 194.65625 -49.417969 L 199.847656 -43.957031 L 181.46875 -26.480469 L 176.277344 -31.941406 L 182.542969 -36.121094 C 190.203125 -24.632812 197.488281 -15.898438 204.40625 -9.917969 C 210.425781 -4.710938 215.914062 -2.109375 220.875 -2.109375 Z M 158.332031 -44.699219 C 145.792969 -50.535156 135.824219 -57.429688 128.425781 -65.378906 C 120.351562 -74.054688 116.3125 -82.195312 116.3125 -89.796875 C 116.3125 -96.867188 118.558594 -102.40625 123.046875 -106.414062 C 127.289062 -110.199219 132.476562 -112.09375 138.609375 -112.09375 C 147.839844 -112.09375 156.214844 -108.023438 163.730469 -99.878906 C 170.3125 -92.746094 176.484375 -82.785156 182.242188 -69.984375 L 184.261719 -65.5 L 163.378906 -42.347656 Z M 164.691406 -58.355469 L 161.511719 -51.527344 L 155.917969 -56.574219 L 169.777344 -71.941406 L 175.371094 -66.894531 L 168.503906 -63.804688 C 163.414062 -75.109375 158.132812 -83.730469 152.660156 -89.65625 C 148.125 -94.570312 143.441406 -97.027344 138.609375 -97.027344 C 136.308594 -97.027344 134.464844 -96.410156 133.082031 -95.175781 C 131.945312 -94.160156 131.378906 -92.367188 131.378906 -89.796875 C 131.378906 -86.144531 134.070312 -81.429688 139.453125 -75.640625 C 145.515625 -69.128906 153.929688 -63.367188 164.691406 -58.355469 Z M 119.324219 -52.429688 C 126.734375 -52.429688 133.617188 -53.503906 139.964844 -55.648438 C 146.207031 -57.761719 151.984375 -61.027344 157.292969 -65.449219 L 166.332031 -72.984375 L 171.152344 -67.195312 L 164.214844 -70.132812 C 166.238281 -74.910156 167.902344 -80.378906 169.207031 -86.539062 C 170.503906 -92.652344 171.152344 -99.363281 171.152344 -106.671875 C 171.152344 -127.863281 166.210938 -144.023438 156.332031 -155.152344 C 146.679688 -166.019531 133.84375 -171.457031 117.820312 -171.457031 C 107.867188 -171.457031 99.148438 -169.003906 91.664062 -164.097656 C 84.113281 -159.152344 78.230469 -152.199219 74.011719 -143.238281 C 69.667969 -134.007812 67.496094 -123.023438 67.496094 -110.285156 C 67.496094 -98.214844 69.691406 -87.785156 74.085938 -79.003906 C 78.347656 -70.476562 84.316406 -63.925781 91.992188 -59.355469 C 99.746094 -54.738281 108.855469 -52.429688 119.324219 -52.429688 Z M 119.324219 -37.363281 C 106.089844 -37.363281 94.410156 -40.378906 84.285156 -46.410156 C 74.082031 -52.488281 66.1875 -61.105469 60.609375 -72.265625 C 55.15625 -83.167969 52.429688 -95.84375 52.429688 -110.285156 C 52.429688 -125.269531 55.082031 -138.390625 60.378906 -149.652344 C 65.804688 -161.183594 73.480469 -170.199219 83.40625 -176.703125 C 93.398438 -183.25 104.871094 -186.523438 117.820312 -186.523438 C 138.355469 -186.523438 154.949219 -179.402344 167.597656 -165.15625 C 180.011719 -151.175781 186.21875 -131.679688 186.21875 -106.671875 C 186.21875 -98.308594 185.460938 -90.554688 183.945312 -83.410156 C 182.441406 -76.3125 180.488281 -69.925781 178.09375 -64.261719 L 177.378906 -62.578125 L 166.9375 -53.875 C 160.191406 -48.253906 152.808594 -44.085938 144.789062 -41.378906 C 136.875 -38.703125 128.386719 -37.363281 119.324219 -37.363281 Z M 119.324219 -37.363281 "/></g></g></g><g fill="#f18071" fill-opacity="1"><g transform="translate(400.149626, 630.836004)"><g><path d="M 111.1875 -2.109375 C 91.300781 -2.109375 74.125 -6.125 59.65625 -14.15625 C 45.195312 -22.195312 34.097656 -33.648438 26.359375 -48.515625 C 18.628906 -63.378906 14.765625 -81.054688 14.765625 -101.546875 C 14.765625 -124.847656 19.03125 -145.285156 27.5625 -162.859375 C 36.101562 -180.441406 48.15625 -194.15625 63.71875 -204 C 79.289062 -213.84375 97.625 -218.765625 118.71875 -218.765625 C 133.988281 -218.765625 147.800781 -216 160.15625 -210.46875 C 172.507812 -204.945312 183.054688 -197.414062 191.796875 -187.875 C 200.535156 -178.332031 207.265625 -167.285156 211.984375 -154.734375 C 216.703125 -142.179688 219.0625 -128.769531 219.0625 -114.5 C 219.0625 -100.4375 217.253906 -87.425781 213.640625 -75.46875 C 210.023438 -63.519531 204.90625 -53.734375 198.28125 -46.109375 L 182.296875 -30.4375 C 174.867188 -21.394531 165.023438 -14.410156 152.765625 -9.484375 C 140.515625 -4.566406 126.65625 -2.109375 111.1875 -2.109375 Z M 220.875 5.421875 C 214.039062 5.421875 206.90625 2.207031 199.46875 -4.21875 C 192.039062 -10.644531 184.3125 -19.882812 176.28125 -31.9375 L 194.65625 -49.421875 C 208.113281 -43.796875 218.609375 -37.566406 226.140625 -30.734375 C 233.679688 -23.898438 237.453125 -17.070312 237.453125 -10.25 C 237.453125 -6.226562 235.992188 -2.613281 233.078125 0.59375 C 230.160156 3.8125 226.09375 5.421875 220.875 5.421875 Z M 161.515625 -51.53125 C 149.859375 -56.945312 140.664062 -63.269531 133.9375 -70.5 C 127.207031 -77.738281 123.84375 -84.171875 123.84375 -89.796875 C 123.84375 -94.617188 125.25 -98.285156 128.0625 -100.796875 C 130.875 -103.304688 134.390625 -104.5625 138.609375 -104.5625 C 145.640625 -104.5625 152.164062 -101.296875 158.1875 -94.765625 C 164.21875 -88.234375 169.945312 -78.941406 175.375 -66.890625 Z M 119.328125 -44.890625 C 127.566406 -44.890625 135.25 -46.09375 142.375 -48.5 C 149.507812 -50.914062 156.085938 -54.632812 162.109375 -59.65625 L 171.15625 -67.203125 C 173.363281 -72.421875 175.171875 -78.34375 176.578125 -84.96875 C 177.984375 -91.601562 178.6875 -98.835938 178.6875 -106.671875 C 178.6875 -129.773438 173.109375 -147.601562 161.953125 -160.15625 C 150.804688 -172.707031 136.09375 -178.984375 117.8125 -178.984375 C 106.363281 -178.984375 96.269531 -176.117188 87.53125 -170.390625 C 78.789062 -164.671875 72.007812 -156.6875 67.1875 -146.4375 C 62.375 -136.195312 59.96875 -124.144531 59.96875 -110.28125 C 59.96875 -97.03125 62.425781 -85.484375 67.34375 -75.640625 C 72.269531 -65.796875 79.203125 -58.207031 88.140625 -52.875 C 97.078125 -47.550781 107.472656 -44.890625 119.328125 -44.890625 Z M 119.328125 -44.890625 "/></g></g></g><g fill="#333333" fill-opacity="1"><g transform="translate(85.186686, 356.577307)"><g><path d="M 72.277344 -152.253906 L 139.957031 5.460938 L 110.355469 5.460938 L 92.046875 -38.5625 L 97.089844 -40.660156 L 97.089844 -35.195312 L 35.910156 -35.195312 L 35.910156 -40.660156 L 40.9375 -38.523438 L 22.234375 5.460938 L -7.234375 5.460938 L 67.324219 -163.796875 Z M 62.238281 -147.945312 L 67.257812 -150.097656 L 72.257812 -147.894531 L 6.140625 2.203125 L 1.140625 0 L 1.140625 -5.460938 L 18.621094 -5.460938 L 18.621094 0 L 13.59375 -2.136719 L 32.296875 -46.121094 L 100.734375 -46.121094 L 119.042969 -2.097656 L 114 0 L 114 -5.460938 L 131.667969 -5.460938 L 131.667969 0 L 126.648438 2.152344 Z M 42.371094 -60.941406 L 90.820312 -60.941406 L 90.820312 -55.480469 L 85.777344 -53.375 L 61.835938 -110.753906 L 66.878906 -112.859375 L 71.902344 -110.710938 L 47.394531 -53.332031 L 42.371094 -55.480469 Z M 34.097656 -50.015625 L 66.9375 -126.902344 L 99.015625 -50.015625 Z M 34.097656 -50.015625 "/></g></g></g><g fill="#333333" fill-opacity="1"><g transform="translate(225.391958, 356.577307)"><g><path d="M 85.878906 5.460938 L 65.214844 5.460938 L 65.214844 -52.058594 C 65.214844 -59.941406 64.164062 -65.449219 62.058594 -68.582031 C 60.417969 -71.023438 57.023438 -72.246094 51.871094 -72.246094 C 45.820312 -72.246094 41.648438 -70.339844 39.355469 -66.53125 C 36.519531 -61.824219 35.101562 -54.277344 35.101562 -43.890625 L 35.101562 5.460938 L 8.976562 5.460938 L 8.976562 -94.761719 L 35.101562 -94.761719 L 35.101562 -78.46875 L 29.640625 -78.46875 L 29.640625 -83.929688 L 30.019531 -83.929688 L 30.019531 -78.46875 L 25.617188 -81.703125 C 29.257812 -86.652344 33.484375 -90.460938 38.296875 -93.128906 C 43.238281 -95.863281 48.964844 -97.230469 55.480469 -97.230469 C 67.1875 -97.230469 76.15625 -93.507812 82.375 -86.054688 C 88.351562 -78.898438 91.339844 -68.199219 91.339844 -53.960938 L 91.339844 5.460938 Z M 85.878906 -5.460938 L 85.878906 0 L 80.417969 0 L 80.417969 -53.960938 C 80.417969 -65.558594 78.273438 -73.921875 73.992188 -79.050781 C 69.953125 -83.886719 63.78125 -86.304688 55.480469 -86.304688 C 50.847656 -86.304688 46.882812 -85.394531 43.589844 -83.570312 C 40.171875 -81.675781 37.113281 -78.898438 34.421875 -75.234375 L 32.785156 -73.007812 L 24.175781 -73.007812 L 24.175781 -89.296875 L 29.640625 -89.296875 L 29.640625 -83.835938 L 14.441406 -83.835938 L 14.441406 -89.296875 L 19.902344 -89.296875 L 19.902344 0 L 14.441406 0 L 14.441406 -5.460938 L 29.640625 -5.460938 L 29.640625 0 L 24.175781 0 L 24.175781 -43.890625 C 24.175781 -56.300781 26.117188 -65.726562 29.996094 -72.167969 C 34.414062 -79.503906 41.703125 -83.171875 51.871094 -83.171875 C 60.902344 -83.171875 67.324219 -80.339844 71.128906 -74.675781 C 74.46875 -69.699219 76.140625 -62.164062 76.140625 -52.058594 L 76.140625 0 L 70.679688 0 L 70.679688 -5.460938 Z M 85.878906 -5.460938 "/></g></g></g><g fill="#333333" fill-opacity="1"><g transform="translate(333.119696, 356.577307)"><g><path d="M 35.863281 -121.410156 L 35.863281 -89.296875 L 30.398438 -89.296875 L 30.398438 -94.761719 L 51.820312 -94.761719 L 51.820312 -69.777344 L 30.398438 -69.777344 L 30.398438 -75.238281 L 35.863281 -75.238281 L 35.863281 5.460938 L 9.738281 5.460938 L 9.738281 -75.238281 L 15.199219 -75.238281 L 15.199219 -69.777344 L 0.425781 -69.777344 L 0.425781 -94.761719 L 15.199219 -94.761719 L 15.199219 -89.296875 L 9.738281 -89.296875 L 9.738281 -126.871094 L 35.863281 -126.871094 Z M 24.9375 -121.410156 L 30.398438 -121.410156 L 30.398438 -115.945312 L 15.199219 -115.945312 L 15.199219 -121.410156 L 20.664062 -121.410156 L 20.664062 -83.835938 L 5.890625 -83.835938 L 5.890625 -89.296875 L 11.351562 -89.296875 L 11.351562 -75.238281 L 5.890625 -75.238281 L 5.890625 -80.703125 L 20.664062 -80.703125 L 20.664062 0 L 15.199219 0 L 15.199219 -5.460938 L 30.398438 -5.460938 L 30.398438 0 L 24.9375 0 L 24.9375 -80.703125 L 46.359375 -80.703125 L 46.359375 -75.238281 L 40.898438 -75.238281 L 40.898438 -89.296875 L 46.359375 -89.296875 L 46.359375 -83.835938 L 24.9375 -83.835938 Z M 24.9375 -121.410156 "/></g></g></g><g fill="#333333" fill-opacity="1"><g transform="translate(386.128962, 356.577307)"><g><path d="M 37.953125 -89.296875 L 37.953125 5.460938 L 11.828125 5.460938 L 11.828125 -94.761719 L 37.953125 -94.761719 Z M 27.027344 -89.296875 L 32.488281 -89.296875 L 32.488281 -83.835938 L 17.289062 -83.835938 L 17.289062 -89.296875 L 22.753906 -89.296875 L 22.753906 0 L 17.289062 0 L 17.289062 -5.460938 L 32.488281 -5.460938 L 32.488281 0 L 27.027344 0 Z M 8.597656 -123.308594 C 8.597656 -127.667969 10.277344 -131.429688 13.636719 -134.597656 C 16.90625 -137.679688 20.65625 -139.222656 24.890625 -139.222656 C 29.28125 -139.222656 33.082031 -137.660156 36.292969 -134.542969 C 39.550781 -131.378906 41.183594 -127.636719 41.183594 -123.308594 C 41.183594 -118.476562 39.550781 -114.476562 36.292969 -111.3125 C 33.082031 -108.195312 29.28125 -106.636719 24.890625 -106.636719 C 20.53125 -106.636719 16.75 -108.144531 13.546875 -111.160156 C 10.246094 -114.265625 8.597656 -118.316406 8.597656 -123.308594 Z M 19.523438 -123.308594 C 19.523438 -121.460938 20.027344 -120.066406 21.035156 -119.117188 C 22.136719 -118.078125 23.421875 -117.5625 24.890625 -117.5625 C 26.328125 -117.5625 27.589844 -118.089844 28.683594 -119.152344 C 29.734375 -120.171875 30.257812 -121.554688 30.257812 -123.308594 C 30.257812 -124.554688 29.734375 -125.6875 28.683594 -126.703125 C 27.589844 -127.765625 26.328125 -128.296875 24.890625 -128.296875 C 23.550781 -128.296875 22.296875 -127.746094 21.132812 -126.648438 C 20.058594 -125.636719 19.523438 -124.523438 19.523438 -123.308594 Z M 19.523438 -123.308594 "/></g></g></g><g fill="#333333" fill-opacity="1"><g transform="translate(443.317956, 356.577307)"><g><path d="M 101.410156 -156.746094 L 101.410156 5.460938 L 75.285156 5.460938 L 75.285156 -12.351562 L 80.75 -12.351562 L 80.75 -6.886719 L 80.367188 -6.886719 L 80.367188 -12.351562 L 84.699219 -9.019531 C 80.359375 -3.378906 75.164062 0.863281 69.105469 3.707031 C 63.113281 6.523438 56.609375 7.933594 49.589844 7.933594 C 40.410156 7.933594 32.078125 5.519531 24.589844 0.695312 C 17.171875 -4.082031 11.433594 -10.492188 7.378906 -18.535156 C 3.378906 -26.464844 1.378906 -35.105469 1.378906 -44.460938 C 1.378906 -54.050781 3.371094 -62.871094 7.359375 -70.921875 C 11.429688 -79.128906 17.191406 -85.5625 24.65625 -90.226562 C 32.125 -94.894531 40.5 -97.230469 49.78125 -97.230469 C 56.71875 -97.230469 63.234375 -95.710938 69.320312 -92.664062 C 75.398438 -89.628906 80.527344 -85.367188 84.710938 -79.882812 L 80.367188 -76.570312 L 80.367188 -82.03125 L 80.75 -82.03125 L 80.75 -76.570312 L 75.285156 -76.570312 L 75.285156 -162.210938 L 101.410156 -162.210938 Z M 90.484375 -156.746094 L 95.949219 -156.746094 L 95.949219 -151.285156 L 80.75 -151.285156 L 80.75 -156.746094 L 86.210938 -156.746094 L 86.210938 -71.105469 L 77.667969 -71.105469 L 76.027344 -73.253906 C 72.863281 -77.398438 69 -80.609375 64.4375 -82.894531 C 59.886719 -85.167969 55 -86.304688 49.78125 -86.304688 C 42.589844 -86.304688 36.144531 -84.523438 30.445312 -80.960938 C 24.734375 -77.390625 20.300781 -72.425781 17.148438 -66.066406 C 13.917969 -59.550781 12.300781 -52.347656 12.300781 -44.460938 C 12.300781 -36.839844 13.914062 -29.835938 17.132812 -23.453125 C 20.296875 -17.183594 24.753906 -12.195312 30.507812 -8.488281 C 36.195312 -4.824219 42.554688 -2.992188 49.589844 -2.992188 C 54.984375 -2.992188 59.941406 -4.054688 64.460938 -6.179688 C 68.917969 -8.273438 72.777344 -11.441406 76.039062 -15.679688 L 77.679688 -17.8125 L 86.210938 -17.8125 L 86.210938 0 L 80.75 0 L 80.75 -5.460938 L 95.949219 -5.460938 L 95.949219 0 L 90.484375 0 Z M 51.488281 -72.246094 C 44.890625 -72.246094 39.347656 -69.722656 34.863281 -64.675781 C 30.207031 -59.441406 27.882812 -53.082031 27.882812 -45.597656 C 27.882812 -37.175781 30.175781 -30.242188 34.765625 -24.800781 C 39.121094 -19.636719 44.757812 -17.050781 51.679688 -17.050781 C 58.910156 -17.050781 64.734375 -19.542969 69.160156 -24.527344 C 73.75 -29.699219 76.046875 -36.660156 76.046875 -45.410156 C 76.046875 -53.585938 73.726562 -60.125 69.085938 -65.023438 C 64.527344 -69.839844 58.664062 -72.246094 51.488281 -72.246094 Z M 51.488281 -83.171875 C 61.796875 -83.171875 70.308594 -79.625 77.019531 -72.535156 C 83.65625 -65.527344 86.972656 -56.488281 86.972656 -45.410156 C 86.972656 -33.894531 83.757812 -24.515625 77.328125 -17.273438 C 70.734375 -9.84375 62.183594 -6.128906 51.679688 -6.128906 C 41.375 -6.128906 32.953125 -10.003906 26.414062 -17.757812 C 20.109375 -25.234375 16.957031 -34.515625 16.957031 -45.597656 C 16.957031 -55.851562 20.203125 -64.628906 26.695312 -71.933594 C 33.355469 -79.425781 41.621094 -83.171875 51.488281 -83.171875 Z M 51.488281 -83.171875 "/></g></g></g><g fill="#333333" fill-opacity="1"><g transform="translate(560.355439, 356.577307)"><g><path d="M 92.148438 -35.957031 L 22.039062 -35.957031 L 22.039062 -41.417969 L 27.5 -41.574219 C 27.710938 -34.167969 30.085938 -28.222656 34.621094 -23.738281 C 39.128906 -19.28125 44.6875 -17.050781 51.300781 -17.050781 C 55.898438 -17.050781 59.921875 -18.203125 63.375 -20.503906 C 67.023438 -22.9375 70.472656 -27.011719 73.71875 -32.71875 L 76.429688 -37.484375 L 98.722656 -24.699219 L 96.195312 -20.015625 C 91.429688 -11.183594 85.121094 -4.328125 77.269531 0.554688 C 69.355469 5.472656 60.320312 7.933594 50.160156 7.933594 C 40.378906 7.933594 31.6875 5.566406 24.09375 0.835938 C 16.5 -3.890625 10.734375 -10.230469 6.789062 -18.191406 C 2.929688 -25.984375 0.996094 -34.421875 0.996094 -43.507812 C 0.996094 -53.449219 2.914062 -62.460938 6.75 -70.550781 C 10.683594 -78.847656 16.386719 -85.367188 23.863281 -90.109375 C 31.34375 -94.859375 39.980469 -97.230469 49.78125 -97.230469 C 59.320312 -97.230469 67.796875 -94.890625 75.210938 -90.214844 C 82.628906 -85.53125 88.273438 -79.105469 92.144531 -70.925781 C 95.917969 -62.96875 97.800781 -54.082031 97.800781 -44.269531 C 97.800781 -43.15625 97.722656 -41.980469 97.570312 -40.742188 L 96.972656 -35.957031 Z M 92.148438 -46.882812 L 92.148438 -41.417969 L 86.726562 -42.097656 C 86.828125 -42.886719 86.875 -43.609375 86.875 -44.269531 C 86.875 -52.445312 85.339844 -59.769531 82.273438 -66.25 C 79.304688 -72.515625 75.007812 -77.421875 69.378906 -80.972656 C 63.746094 -84.527344 57.214844 -86.304688 49.78125 -86.304688 C 42.097656 -86.304688 35.410156 -84.5 29.714844 -80.886719 C 24.019531 -77.269531 19.652344 -72.265625 16.621094 -65.867188 C 13.488281 -59.261719 11.921875 -51.808594 11.921875 -43.507812 C 11.921875 -36.128906 13.476562 -29.304688 16.578125 -23.039062 C 19.601562 -16.9375 24.03125 -12.070312 29.867188 -8.4375 C 35.695312 -4.808594 42.460938 -2.992188 50.160156 -2.992188 C 58.238281 -2.992188 65.351562 -4.902344 71.5 -8.722656 C 77.707031 -12.582031 82.734375 -18.078125 86.582031 -25.203125 L 91.390625 -22.609375 L 88.671875 -17.871094 L 75.75 -25.28125 L 78.46875 -30.019531 L 83.21875 -27.320312 C 79.117188 -20.109375 74.523438 -14.808594 69.433594 -11.414062 C 64.148438 -7.890625 58.101562 -6.128906 51.300781 -6.128906 C 41.695312 -6.128906 33.578125 -9.410156 26.9375 -15.96875 C 20.328125 -22.507812 16.875 -30.9375 16.578125 -41.261719 L 16.417969 -46.882812 Z M 70.816406 -53.363281 C 69.777344 -59.074219 67.269531 -63.664062 63.289062 -67.132812 C 59.378906 -70.542969 54.9375 -72.246094 49.96875 -72.246094 C 45.070312 -72.246094 40.40625 -70.414062 35.96875 -66.75 C 31.589844 -63.136719 29 -58.722656 28.199219 -53.507812 L 22.800781 -54.339844 L 22.800781 -59.800781 L 76.1875 -59.800781 L 76.1875 -54.339844 Z M 82.734375 -48.875 L 16.433594 -48.875 L 17.402344 -55.167969 C 18.625 -63.128906 22.496094 -69.796875 29.011719 -75.175781 C 35.46875 -80.507812 42.453125 -83.171875 49.96875 -83.171875 C 57.667969 -83.171875 64.5 -80.570312 70.46875 -75.367188 C 76.371094 -70.222656 80.070312 -63.539062 81.5625 -55.316406 Z M 82.734375 -48.875 "/></g></g></g><g fill="#333333" fill-opacity="1"><g transform="translate(666.373225, 356.577307)"><g><path d="M 52.203125 -69.347656 C 50.863281 -70.351562 49.628906 -71.179688 48.496094 -71.828125 C 48.003906 -72.105469 47.292969 -72.246094 46.359375 -72.246094 C 44.496094 -72.246094 42.902344 -71.863281 41.585938 -71.09375 C 40.238281 -70.304688 39.0625 -69.054688 38.054688 -67.34375 C 35.578125 -63.128906 34.34375 -55.882812 34.34375 -45.597656 L 34.34375 5.460938 L 8.21875 5.460938 L 8.21875 -94.761719 L 34.34375 -94.761719 L 34.34375 -79.609375 L 28.878906 -79.609375 L 28.878906 -85.070312 L 29.257812 -85.070312 L 29.257812 -79.609375 L 24.875 -82.867188 C 29.015625 -88.4375 32.855469 -92.203125 36.390625 -94.167969 C 40.066406 -96.210938 44.277344 -97.230469 49.019531 -97.230469 C 51.875 -97.230469 54.75 -96.761719 57.640625 -95.824219 C 60.363281 -94.941406 62.972656 -93.765625 65.46875 -92.296875 L 69.9375 -89.667969 L 57.351562 -65.488281 Z M 58.757812 -78.089844 L 55.480469 -73.71875 L 50.632812 -76.242188 L 57.855469 -90.109375 L 62.699219 -87.589844 L 59.929688 -82.878906 C 58.121094 -83.945312 56.234375 -84.796875 54.269531 -85.433594 C 52.472656 -86.015625 50.722656 -86.304688 49.019531 -86.304688 C 46.164062 -86.304688 43.722656 -85.742188 41.699219 -84.617188 C 39.53125 -83.417969 36.847656 -80.660156 33.644531 -76.347656 L 32.003906 -74.144531 L 23.417969 -74.144531 L 23.417969 -89.296875 L 28.878906 -89.296875 L 28.878906 -83.835938 L 13.679688 -83.835938 L 13.679688 -89.296875 L 19.140625 -89.296875 L 19.140625 0 L 13.679688 0 L 13.679688 -5.460938 L 28.878906 -5.460938 L 28.878906 0 L 23.417969 0 L 23.417969 -45.597656 C 23.417969 -57.863281 25.15625 -66.957031 28.632812 -72.875 C 30.605469 -76.230469 33.085938 -78.78125 36.078125 -80.527344 C 39.097656 -82.289062 42.523438 -83.171875 46.359375 -83.171875 C 49.226562 -83.171875 51.746094 -82.550781 53.914062 -81.3125 C 55.441406 -80.4375 57.054688 -79.363281 58.757812 -78.089844 Z M 58.757812 -78.089844 "/></g></g></g><g fill="#333333" fill-opacity="1"><g transform="translate(737.431894, 356.577307)"><g><path d="M 37.953125 -89.296875 L 37.953125 5.460938 L 11.828125 5.460938 L 11.828125 -94.761719 L 37.953125 -94.761719 Z M 27.027344 -89.296875 L 32.488281 -89.296875 L 32.488281 -83.835938 L 17.289062 -83.835938 L 17.289062 -89.296875 L 22.753906 -89.296875 L 22.753906 0 L 17.289062 0 L 17.289062 -5.460938 L 32.488281 -5.460938 L 32.488281 0 L 27.027344 0 Z M 8.597656 -123.308594 C 8.597656 -127.667969 10.277344 -131.429688 13.636719 -134.597656 C 16.90625 -137.679688 20.65625 -139.222656 24.890625 -139.222656 C 29.28125 -139.222656 33.082031 -137.660156 36.292969 -134.542969 C 39.550781 -131.378906 41.183594 -127.636719 41.183594 -123.308594 C 41.183594 -118.476562 39.550781 -114.476562 36.292969 -111.3125 C 33.082031 -108.195312 29.28125 -106.636719 24.890625 -106.636719 C 20.53125 -106.636719 16.75 -108.144531 13.546875 -111.160156 C 10.246094 -114.265625 8.597656 -118.316406 8.597656 -123.308594 Z M 19.523438 -123.308594 C 19.523438 -121.460938 20.027344 -120.066406 21.035156 -119.117188 C 22.136719 -118.078125 23.421875 -117.5625 24.890625 -117.5625 C 26.328125 -117.5625 27.589844 -118.089844 28.683594 -119.152344 C 29.734375 -120.171875 30.257812 -121.554688 30.257812 -123.308594 C 30.257812 -124.554688 29.734375 -125.6875 28.683594 -126.703125 C 27.589844 -127.765625 26.328125 -128.296875 24.890625 -128.296875 C 23.550781 -128.296875 22.296875 -127.746094 21.132812 -126.648438 C 20.058594 -125.636719 19.523438 -124.523438 19.523438 -123.308594 Z M 19.523438 -123.308594 "/></g></g></g><g fill="#333333" fill-opacity="1"><g transform="translate(794.620915, 356.577307)"><g><path d="M 22.472656 -91.511719 L 49.074219 -31.472656 L 44.078125 -29.257812 L 39.085938 -31.472656 L 67.125 -94.761719 L 96.296875 -94.761719 L 44.089844 18.960938 L -8.34375 -94.761719 L 21.035156 -94.761719 Z M 12.484375 -87.085938 L 17.480469 -89.296875 L 17.480469 -83.835938 L 0.191406 -83.835938 L 0.191406 -89.296875 L 5.152344 -91.585938 L 49.039062 3.601562 L 44.078125 5.890625 L 39.113281 3.609375 L 82.816406 -91.578125 L 87.777344 -89.296875 L 87.777344 -83.835938 L 70.679688 -83.835938 L 70.679688 -89.296875 L 75.671875 -87.085938 L 44.078125 -15.773438 Z M 12.484375 -87.085938 "/></g></g></g><g fill="#333333" fill-opacity="1"><g transform="translate(889.99919, 356.577307)"><g><path d="M 75.285156 -76.570312 L 75.285156 -94.761719 L 101.410156 -94.761719 L 101.410156 5.460938 L 75.285156 5.460938 L 75.285156 -12.351562 L 80.75 -12.351562 L 80.75 -6.886719 L 80.367188 -6.886719 L 80.367188 -12.351562 L 84.644531 -8.949219 C 75.699219 2.304688 64.011719 7.933594 49.589844 7.933594 C 35.53125 7.933594 23.9375 2.757812 14.808594 -7.597656 C 5.855469 -17.75 1.378906 -30.035156 1.378906 -44.460938 C 1.378906 -59.546875 5.902344 -72.074219 14.957031 -82.046875 C 24.144531 -92.167969 35.753906 -97.230469 49.78125 -97.230469 C 56.855469 -97.230469 63.410156 -95.707031 69.441406 -92.652344 C 75.441406 -89.617188 80.53125 -85.359375 84.710938 -79.882812 L 80.367188 -76.570312 L 80.367188 -82.03125 L 80.75 -82.03125 L 80.75 -76.570312 Z M 86.210938 -71.105469 L 77.667969 -71.105469 L 76.027344 -73.253906 C 72.859375 -77.40625 69.019531 -80.621094 64.507812 -82.90625 C 60.027344 -85.171875 55.117188 -86.304688 49.78125 -86.304688 C 38.980469 -86.304688 30.066406 -82.4375 23.042969 -74.703125 C 15.882812 -66.8125 12.300781 -56.734375 12.300781 -44.460938 C 12.300781 -32.789062 15.867188 -22.910156 23 -14.824219 C 29.957031 -6.9375 38.820312 -2.992188 49.589844 -2.992188 C 60.5 -2.992188 69.332031 -7.246094 76.09375 -15.75 L 77.734375 -17.8125 L 86.210938 -17.8125 L 86.210938 0 L 80.75 0 L 80.75 -5.460938 L 95.949219 -5.460938 L 95.949219 0 L 90.484375 0 L 90.484375 -89.296875 L 95.949219 -89.296875 L 95.949219 -83.835938 L 80.75 -83.835938 L 80.75 -89.296875 L 86.210938 -89.296875 Z M 51.488281 -72.246094 C 44.996094 -72.246094 39.472656 -69.738281 34.917969 -64.726562 C 30.226562 -59.5625 27.882812 -53.1875 27.882812 -45.597656 C 27.882812 -37.304688 30.207031 -30.40625 34.859375 -24.898438 C 39.277344 -19.667969 44.882812 -17.050781 51.679688 -17.050781 C 59.023438 -17.050781 64.875 -19.535156 69.234375 -24.503906 C 73.773438 -29.679688 76.046875 -36.648438 76.046875 -45.410156 C 76.046875 -53.25 73.730469 -59.722656 69.101562 -64.824219 C 64.613281 -69.773438 58.742188 -72.246094 51.488281 -72.246094 Z M 51.488281 -83.171875 C 61.96875 -83.171875 70.539062 -79.503906 77.195312 -72.164062 C 83.710938 -64.980469 86.972656 -56.0625 86.972656 -45.410156 C 86.972656 -33.90625 83.796875 -24.535156 77.445312 -17.296875 C 70.910156 -9.851562 62.320312 -6.128906 51.679688 -6.128906 C 41.5 -6.128906 33.113281 -10.035156 26.511719 -17.851562 C 20.140625 -25.390625 16.957031 -34.640625 16.957031 -45.597656 C 16.957031 -56 20.25 -64.824219 26.832031 -72.070312 C 33.550781 -79.472656 41.769531 -83.171875 51.488281 -83.171875 Z M 51.488281 -83.171875 "/></g></g></g><g fill="#333333" fill-opacity="1"><g transform="translate(1007.037488, 356.577307)"><g><path d="M 35.863281 -121.410156 L 35.863281 -89.296875 L 30.398438 -89.296875 L 30.398438 -94.761719 L 51.820312 -94.761719 L 51.820312 -69.777344 L 30.398438 -69.777344 L 30.398438 -75.238281 L 35.863281 -75.238281 L 35.863281 5.460938 L 9.738281 5.460938 L 9.738281 -75.238281 L 15.199219 -75.238281 L 15.199219 -69.777344 L 0.425781 -69.777344 L 0.425781 -94.761719 L 15.199219 -94.761719 L 15.199219 -89.296875 L 9.738281 -89.296875 L 9.738281 -126.871094 L 35.863281 -126.871094 Z M 24.9375 -121.410156 L 30.398438 -121.410156 L 30.398438 -115.945312 L 15.199219 -115.945312 L 15.199219 -121.410156 L 20.664062 -121.410156 L 20.664062 -83.835938 L 5.890625 -83.835938 L 5.890625 -89.296875 L 11.351562 -89.296875 L 11.351562 -75.238281 L 5.890625 -75.238281 L 5.890625 -80.703125 L 20.664062 -80.703125 L 20.664062 0 L 15.199219 0 L 15.199219 -5.460938 L 30.398438 -5.460938 L 30.398438 0 L 24.9375 0 L 24.9375 -80.703125 L 46.359375 -80.703125 L 46.359375 -75.238281 L 40.898438 -75.238281 L 40.898438 -89.296875 L 46.359375 -89.296875 L 46.359375 -83.835938 L 24.9375 -83.835938 Z M 24.9375 -121.410156 "/></g></g></g><g fill="#333333" fill-opacity="1"><g transform="translate(1060.045973, 356.577307)"><g><path d="M 37.953125 -89.296875 L 37.953125 5.460938 L 11.828125 5.460938 L 11.828125 -94.761719 L 37.953125 -94.761719 Z M 27.027344 -89.296875 L 32.488281 -89.296875 L 32.488281 -83.835938 L 17.289062 -83.835938 L 17.289062 -89.296875 L 22.753906 -89.296875 L 22.753906 0 L 17.289062 0 L 17.289062 -5.460938 L 32.488281 -5.460938 L 32.488281 0 L 27.027344 0 Z M 8.597656 -123.308594 C 8.597656 -127.667969 10.277344 -131.429688 13.636719 -134.597656 C 16.90625 -137.679688 20.65625 -139.222656 24.890625 -139.222656 C 29.28125 -139.222656 33.082031 -137.660156 36.292969 -134.542969 C 39.550781 -131.378906 41.183594 -127.636719 41.183594 -123.308594 C 41.183594 -118.476562 39.550781 -114.476562 36.292969 -111.3125 C 33.082031 -108.195312 29.28125 -106.636719 24.890625 -106.636719 C 20.53125 -106.636719 16.75 -108.144531 13.546875 -111.160156 C 10.246094 -114.265625 8.597656 -118.316406 8.597656 -123.308594 Z M 19.523438 -123.308594 C 19.523438 -121.460938 20.027344 -120.066406 21.035156 -119.117188 C 22.136719 -118.078125 23.421875 -117.5625 24.890625 -117.5625 C 26.328125 -117.5625 27.589844 -118.089844 28.683594 -119.152344 C 29.734375 -120.171875 30.257812 -121.554688 30.257812 -123.308594 C 30.257812 -124.554688 29.734375 -125.6875 28.683594 -126.703125 C 27.589844 -127.765625 26.328125 -128.296875 24.890625 -128.296875 C 23.550781 -128.296875 22.296875 -127.746094 21.132812 -126.648438 C 20.058594 -125.636719 19.523438 -124.523438 19.523438 -123.308594 Z M 19.523438 -123.308594 "/></g></g></g><g fill="#333333" fill-opacity="1"><g transform="translate(1117.234995, 356.577307)"><g><path d="M 22.472656 -91.511719 L 49.074219 -31.472656 L 44.078125 -29.257812 L 39.085938 -31.472656 L 67.125 -94.761719 L 96.296875 -94.761719 L 44.089844 18.960938 L -8.34375 -94.761719 L 21.035156 -94.761719 Z M 12.484375 -87.085938 L 17.480469 -89.296875 L 17.480469 -83.835938 L 0.191406 -83.835938 L 0.191406 -89.296875 L 5.152344 -91.585938 L 49.039062 3.601562 L 44.078125 5.890625 L 39.113281 3.609375 L 82.816406 -91.578125 L 87.777344 -89.296875 L 87.777344 -83.835938 L 70.679688 -83.835938 L 70.679688 -89.296875 L 75.671875 -87.085938 L 44.078125 -15.773438 Z M 12.484375 -87.085938 "/></g></g></g><g fill="#333333" fill-opacity="1"><g transform="translate(1212.613198, 356.577307)"><g><path d="M 92.148438 -35.957031 L 22.039062 -35.957031 L 22.039062 -41.417969 L 27.5 -41.574219 C 27.710938 -34.167969 30.085938 -28.222656 34.621094 -23.738281 C 39.128906 -19.28125 44.6875 -17.050781 51.300781 -17.050781 C 55.898438 -17.050781 59.921875 -18.203125 63.375 -20.503906 C 67.023438 -22.9375 70.472656 -27.011719 73.71875 -32.71875 L 76.429688 -37.484375 L 98.722656 -24.699219 L 96.195312 -20.015625 C 91.429688 -11.183594 85.121094 -4.328125 77.269531 0.554688 C 69.355469 5.472656 60.320312 7.933594 50.160156 7.933594 C 40.378906 7.933594 31.6875 5.566406 24.09375 0.835938 C 16.5 -3.890625 10.734375 -10.230469 6.789062 -18.191406 C 2.929688 -25.984375 0.996094 -34.421875 0.996094 -43.507812 C 0.996094 -53.449219 2.914062 -62.460938 6.75 -70.550781 C 10.683594 -78.847656 16.386719 -85.367188 23.863281 -90.109375 C 31.34375 -94.859375 39.980469 -97.230469 49.78125 -97.230469 C 59.320312 -97.230469 67.796875 -94.890625 75.210938 -90.214844 C 82.628906 -85.53125 88.273438 -79.105469 92.144531 -70.925781 C 95.917969 -62.96875 97.800781 -54.082031 97.800781 -44.269531 C 97.800781 -43.15625 97.722656 -41.980469 97.570312 -40.742188 L 96.972656 -35.957031 Z M 92.148438 -46.882812 L 92.148438 -41.417969 L 86.726562 -42.097656 C 86.828125 -42.886719 86.875 -43.609375 86.875 -44.269531 C 86.875 -52.445312 85.339844 -59.769531 82.273438 -66.25 C 79.304688 -72.515625 75.007812 -77.421875 69.378906 -80.972656 C 63.746094 -84.527344 57.214844 -86.304688 49.78125 -86.304688 C 42.097656 -86.304688 35.410156 -84.5 29.714844 -80.886719 C 24.019531 -77.269531 19.652344 -72.265625 16.621094 -65.867188 C 13.488281 -59.261719 11.921875 -51.808594 11.921875 -43.507812 C 11.921875 -36.128906 13.476562 -29.304688 16.578125 -23.039062 C 19.601562 -16.9375 24.03125 -12.070312 29.867188 -8.4375 C 35.695312 -4.808594 42.460938 -2.992188 50.160156 -2.992188 C 58.238281 -2.992188 65.351562 -4.902344 71.5 -8.722656 C 77.707031 -12.582031 82.734375 -18.078125 86.582031 -25.203125 L 91.390625 -22.609375 L 88.671875 -17.871094 L 75.75 -25.28125 L 78.46875 -30.019531 L 83.21875 -27.320312 C 79.117188 -20.109375 74.523438 -14.808594 69.433594 -11.414062 C 64.148438 -7.890625 58.101562 -6.128906 51.300781 -6.128906 C 41.695312 -6.128906 33.578125 -9.410156 26.9375 -15.96875 C 20.328125 -22.507812 16.875 -30.9375 16.578125 -41.261719 L 16.417969 -46.882812 Z M 70.816406 -53.363281 C 69.777344 -59.074219 67.269531 -63.664062 63.289062 -67.132812 C 59.378906 -70.542969 54.9375 -72.246094 49.96875 -72.246094 C 45.070312 -72.246094 40.40625 -70.414062 35.96875 -66.75 C 31.589844 -63.136719 29 -58.722656 28.199219 -53.507812 L 22.800781 -54.339844 L 22.800781 -59.800781 L 76.1875 -59.800781 L 76.1875 -54.339844 Z M 82.734375 -48.875 L 16.433594 -48.875 L 17.402344 -55.167969 C 18.625 -63.128906 22.496094 -69.796875 29.011719 -75.175781 C 35.46875 -80.507812 42.453125 -83.171875 49.96875 -83.171875 C 57.667969 -83.171875 64.5 -80.570312 70.46875 -75.367188 C 76.371094 -70.222656 80.070312 -63.539062 81.5625 -55.316406 Z M 82.734375 -48.875 "/></g></g></g><g fill="#333333" fill-opacity="1"><g transform="translate(1318.63096, 356.577307)"><g><path d="M 45.613281 -66.230469 C 44.613281 -68.324219 43.402344 -69.890625 41.984375 -70.933594 C 40.792969 -71.808594 39.589844 -72.246094 38.378906 -72.246094 C 36.945312 -72.246094 35.597656 -71.707031 34.34375 -70.625 C 33.328125 -69.75 32.820312 -68.820312 32.820312 -67.828125 C 32.820312 -66.871094 33.453125 -65.835938 34.710938 -64.722656 C 36.675781 -62.980469 39.820312 -61.328125 44.136719 -59.757812 C 54.941406 -55.835938 62.578125 -51.382812 67.050781 -46.398438 C 71.84375 -41.054688 74.242188 -34.453125 74.242188 -26.601562 C 74.242188 -20.753906 72.890625 -15.28125 70.1875 -10.175781 C 67.441406 -4.988281 63.269531 -0.675781 57.671875 2.757812 C 52.042969 6.207031 45.675781 7.933594 38.570312 7.933594 C 30.070312 7.933594 22.558594 5.636719 16.042969 1.046875 C 9.515625 -3.550781 4.792969 -10.011719 1.875 -18.332031 L 0.175781 -23.175781 L 23.398438 -32.988281 L 25.539062 -27.992188 C 27.429688 -23.585938 29.398438 -20.632812 31.445312 -19.128906 C 33.332031 -17.746094 35.773438 -17.050781 38.757812 -17.050781 C 41.582031 -17.050781 43.792969 -17.832031 45.394531 -19.394531 C 46.957031 -20.917969 47.738281 -22.878906 47.738281 -25.269531 C 47.738281 -27.082031 47.050781 -28.691406 45.675781 -30.101562 C 43.8125 -32.015625 40.046875 -34.09375 34.375 -36.339844 C 27.5625 -39.039062 22.203125 -41.78125 18.292969 -44.574219 C 11.226562 -49.714844 7.613281 -56.992188 7.457031 -66.40625 C 7.457031 -75.113281 10.546875 -82.4375 16.730469 -88.390625 C 22.855469 -94.285156 30.453125 -97.230469 39.519531 -97.230469 C 45.460938 -97.230469 51.113281 -95.390625 56.476562 -91.714844 C 61.773438 -88.082031 65.707031 -83.320312 68.277344 -77.421875 L 70.3125 -72.753906 L 48.054688 -61.128906 Z M 55.46875 -70.945312 L 50.539062 -68.589844 L 48.011719 -73.429688 L 60.738281 -80.082031 L 63.269531 -75.238281 L 58.261719 -73.054688 C 56.527344 -77.039062 53.871094 -80.253906 50.300781 -82.703125 C 46.796875 -85.105469 43.203125 -86.304688 39.519531 -86.304688 C 33.386719 -86.304688 28.316406 -84.375 24.308594 -80.519531 C 20.359375 -76.714844 18.382812 -72.074219 18.382812 -66.589844 C 18.476562 -60.804688 20.566406 -56.429688 24.644531 -53.464844 C 27.828125 -51.191406 32.414062 -48.867188 38.394531 -46.5 C 45.515625 -43.679688 50.550781 -40.753906 53.5 -37.726562 C 56.941406 -34.195312 58.660156 -30.042969 58.660156 -25.269531 C 58.660156 -19.808594 56.78125 -15.246094 53.023438 -11.574219 C 49.304688 -7.945312 44.550781 -6.128906 38.757812 -6.128906 C 33.386719 -6.128906 28.796875 -7.523438 24.984375 -10.320312 C 21.332031 -12.996094 18.171875 -17.453125 15.5 -23.6875 L 20.519531 -25.839844 L 22.644531 -20.808594 L 9.15625 -15.109375 L 7.03125 -20.140625 L 12.183594 -21.949219 C 14.332031 -15.828125 17.714844 -11.140625 22.335938 -7.886719 C 26.964844 -4.625 32.375 -2.992188 38.570312 -2.992188 C 43.621094 -2.992188 48.085938 -4.179688 51.957031 -6.554688 C 55.859375 -8.949219 58.71875 -11.859375 60.53125 -15.285156 C 62.386719 -18.792969 63.316406 -22.5625 63.316406 -26.601562 C 63.316406 -31.664062 61.851562 -35.832031 58.917969 -39.101562 C 55.664062 -42.730469 49.496094 -46.191406 40.410156 -49.488281 C 28.066406 -53.96875 21.898438 -60.082031 21.898438 -67.828125 C 21.898438 -72.160156 23.667969 -75.851562 27.214844 -78.902344 C 30.519531 -81.75 34.242188 -83.171875 38.378906 -83.171875 C 41.980469 -83.171875 45.339844 -82.027344 48.457031 -79.734375 C 51.34375 -77.613281 53.679688 -74.683594 55.46875 -70.945312 Z M 55.46875 -70.945312 "/></g></g></g><g fill="#333333" fill-opacity="1"><g transform="translate(85.186686, 356.577307)"><g><path d="M 67.265625 -150.09375 L 131.671875 0 L 114 0 L 97.09375 -40.65625 L 35.90625 -40.65625 L 18.625 0 L 1.140625 0 Z M 42.375 -55.484375 L 90.8125 -55.484375 L 66.875 -112.859375 Z M 25.84375 -143.265625 Z M 25.84375 -143.265625 "/></g></g></g><g fill="#333333" fill-opacity="1"><g transform="translate(225.391958, 356.577307)"><g><path d="M 85.875 0 L 70.6875 0 L 70.6875 -52.0625 C 70.6875 -61.050781 69.320312 -67.570312 66.59375 -71.625 C 63.875 -75.675781 58.96875 -77.703125 51.875 -77.703125 C 43.757812 -77.703125 38.023438 -74.914062 34.671875 -69.34375 C 31.316406 -63.769531 29.640625 -55.285156 29.640625 -43.890625 L 29.640625 0 L 14.4375 0 L 14.4375 -89.296875 L 29.640625 -89.296875 L 29.640625 -78.46875 L 30.015625 -78.46875 C 33.179688 -82.78125 36.820312 -86.070312 40.9375 -88.34375 C 45.0625 -90.625 49.910156 -91.765625 55.484375 -91.765625 C 65.484375 -91.765625 73.046875 -88.691406 78.171875 -82.546875 C 83.304688 -76.410156 85.875 -66.878906 85.875 -53.953125 Z M 85.875 0 "/></g></g></g><g fill="#333333" fill-opacity="1"><g transform="translate(333.119696, 356.577307)"><g><path d="M 30.40625 -121.40625 L 30.40625 -89.296875 L 46.359375 -89.296875 L 46.359375 -75.234375 L 30.40625 -75.234375 L 30.40625 0 L 15.203125 0 L 15.203125 -75.234375 L 5.890625 -75.234375 L 5.890625 -89.296875 L 15.203125 -89.296875 L 15.203125 -121.40625 Z M 30.40625 -121.40625 "/></g></g></g><g fill="#333333" fill-opacity="1"><g transform="translate(386.128962, 356.577307)"><g><path d="M 32.484375 -89.296875 L 32.484375 0 L 17.296875 0 L 17.296875 -89.296875 Z M 14.0625 -123.3125 C 14.0625 -126.09375 15.164062 -128.53125 17.375 -130.625 C 19.59375 -132.71875 22.097656 -133.765625 24.890625 -133.765625 C 27.804688 -133.765625 30.335938 -132.71875 32.484375 -130.625 C 34.640625 -128.53125 35.71875 -126.09375 35.71875 -123.3125 C 35.71875 -120.019531 34.640625 -117.328125 32.484375 -115.234375 C 30.335938 -113.140625 27.804688 -112.09375 24.890625 -112.09375 C 21.972656 -112.09375 19.4375 -113.109375 17.28125 -115.140625 C 15.132812 -117.171875 14.0625 -119.894531 14.0625 -123.3125 Z M 14.0625 -123.3125 "/></g></g></g><g fill="#333333" fill-opacity="1"><g transform="translate(443.317956, 356.577307)"><g><path d="M 95.953125 -156.75 L 95.953125 0 L 80.75 0 L 80.75 -12.34375 L 80.375 -12.34375 C 76.570312 -7.40625 72.039062 -3.703125 66.78125 -1.234375 C 61.53125 1.234375 55.800781 2.46875 49.59375 2.46875 C 41.488281 2.46875 34.140625 0.347656 27.546875 -3.890625 C 20.960938 -8.140625 15.863281 -13.84375 12.25 -21 C 8.644531 -28.15625 6.84375 -35.972656 6.84375 -44.453125 C 6.84375 -53.191406 8.644531 -61.203125 12.25 -68.484375 C 15.863281 -75.773438 20.960938 -81.476562 27.546875 -85.59375 C 34.140625 -89.707031 41.550781 -91.765625 49.78125 -91.765625 C 55.863281 -91.765625 61.5625 -90.4375 66.875 -87.78125 C 72.195312 -85.125 76.695312 -81.382812 80.375 -76.5625 L 80.75 -76.5625 L 80.75 -156.75 Z M 51.484375 -77.703125 C 43.253906 -77.703125 36.351562 -74.566406 30.78125 -68.296875 C 25.207031 -62.035156 22.421875 -54.46875 22.421875 -45.59375 C 22.421875 -35.84375 25.144531 -27.738281 30.59375 -21.28125 C 36.039062 -14.820312 43.070312 -11.59375 51.6875 -11.59375 C 60.550781 -11.59375 67.738281 -14.691406 73.25 -20.890625 C 78.757812 -27.097656 81.515625 -35.269531 81.515625 -45.40625 C 81.515625 -55.03125 78.691406 -62.816406 73.046875 -68.765625 C 67.410156 -74.722656 60.222656 -77.703125 51.484375 -77.703125 Z M 51.484375 -77.703125 "/></g></g></g><g fill="#333333" fill-opacity="1"><g transform="translate(560.355439, 356.577307)"><g><path d="M 92.15625 -41.421875 L 22.046875 -41.421875 C 22.296875 -32.554688 25.207031 -25.367188 30.78125 -19.859375 C 36.351562 -14.347656 43.191406 -11.59375 51.296875 -11.59375 C 56.992188 -11.59375 62.023438 -13.046875 66.390625 -15.953125 C 70.765625 -18.867188 74.789062 -23.554688 78.46875 -30.015625 L 91.390625 -22.609375 C 87.085938 -14.628906 81.421875 -8.453125 74.390625 -4.078125 C 67.359375 0.285156 59.28125 2.46875 50.15625 2.46875 C 41.414062 2.46875 33.6875 0.378906 26.96875 -3.796875 C 20.257812 -7.972656 15.160156 -13.578125 11.671875 -20.609375 C 8.191406 -27.640625 6.453125 -35.273438 6.453125 -43.515625 C 6.453125 -52.628906 8.191406 -60.859375 11.671875 -68.203125 C 15.160156 -75.554688 20.195312 -81.320312 26.78125 -85.5 C 33.375 -89.675781 41.039062 -91.765625 49.78125 -91.765625 C 58.269531 -91.765625 65.773438 -89.707031 72.296875 -85.59375 C 78.816406 -81.476562 83.785156 -75.8125 87.203125 -68.59375 C 90.628906 -61.375 92.34375 -53.265625 92.34375 -44.265625 C 92.34375 -43.378906 92.28125 -42.429688 92.15625 -41.421875 Z M 76.1875 -54.34375 C 74.925781 -61.3125 71.820312 -66.945312 66.875 -71.25 C 61.9375 -75.550781 56.300781 -77.703125 49.96875 -77.703125 C 43.757812 -77.703125 37.929688 -75.453125 32.484375 -70.953125 C 27.035156 -66.460938 23.804688 -60.925781 22.796875 -54.34375 Z M 76.1875 -54.34375 "/></g></g></g><g fill="#333333" fill-opacity="1"><g transform="translate(666.373225, 356.577307)"><g><path d="M 55.484375 -73.71875 C 53.960938 -74.863281 52.535156 -75.8125 51.203125 -76.5625 C 49.867188 -77.320312 48.253906 -77.703125 46.359375 -77.703125 C 40.660156 -77.703125 36.320312 -75.171875 33.34375 -70.109375 C 30.363281 -65.046875 28.875 -56.875 28.875 -45.59375 L 28.875 0 L 13.6875 0 L 13.6875 -89.296875 L 28.875 -89.296875 L 28.875 -79.609375 L 29.265625 -79.609375 C 32.929688 -84.546875 36.1875 -87.804688 39.03125 -89.390625 C 41.882812 -90.972656 45.210938 -91.765625 49.015625 -91.765625 C 51.296875 -91.765625 53.609375 -91.382812 55.953125 -90.625 C 58.296875 -89.863281 60.546875 -88.851562 62.703125 -87.59375 Z M 55.484375 -73.71875 "/></g></g></g><g fill="#333333" fill-opacity="1"><g transform="translate(737.431894, 356.577307)"><g><path d="M 32.484375 -89.296875 L 32.484375 0 L 17.296875 0 L 17.296875 -89.296875 Z M 14.0625 -123.3125 C 14.0625 -126.09375 15.164062 -128.53125 17.375 -130.625 C 19.59375 -132.71875 22.097656 -133.765625 24.890625 -133.765625 C 27.804688 -133.765625 30.335938 -132.71875 32.484375 -130.625 C 34.640625 -128.53125 35.71875 -126.09375 35.71875 -123.3125 C 35.71875 -120.019531 34.640625 -117.328125 32.484375 -115.234375 C 30.335938 -113.140625 27.804688 -112.09375 24.890625 -112.09375 C 21.972656 -112.09375 19.4375 -113.109375 17.28125 -115.140625 C 15.132812 -117.171875 14.0625 -119.894531 14.0625 -123.3125 Z M 14.0625 -123.3125 "/></g></g></g><g fill="#333333" fill-opacity="1"><g transform="translate(794.620915, 356.577307)"><g><path d="M 17.484375 -89.296875 L 44.078125 -29.265625 L 70.6875 -89.296875 L 87.78125 -89.296875 L 44.078125 5.890625 L 0.1875 -89.296875 Z M 18.625 0 Z M 18.625 0 "/></g></g></g><g fill="#333333" fill-opacity="1"><g transform="translate(889.99919, 356.577307)"><g><path d="M 80.75 -76.5625 L 80.75 -89.296875 L 95.953125 -89.296875 L 95.953125 0 L 80.75 0 L 80.75 -12.34375 L 80.375 -12.34375 C 72.519531 -2.46875 62.257812 2.46875 49.59375 2.46875 C 37.175781 2.46875 26.945312 -2.085938 18.90625 -11.203125 C 10.863281 -20.328125 6.84375 -31.410156 6.84375 -44.453125 C 6.84375 -58.140625 10.894531 -69.445312 19 -78.375 C 27.101562 -87.300781 37.363281 -91.765625 49.78125 -91.765625 C 55.988281 -91.765625 61.71875 -90.4375 66.96875 -87.78125 C 72.226562 -85.125 76.695312 -81.382812 80.375 -76.5625 Z M 51.484375 -77.703125 C 43.378906 -77.703125 36.507812 -74.597656 30.875 -68.390625 C 25.238281 -62.191406 22.421875 -54.59375 22.421875 -45.59375 C 22.421875 -35.96875 25.175781 -27.894531 30.6875 -21.375 C 36.195312 -14.851562 43.195312 -11.59375 51.6875 -11.59375 C 60.675781 -11.59375 67.894531 -14.691406 73.34375 -20.890625 C 78.789062 -27.097656 81.515625 -35.269531 81.515625 -45.40625 C 81.515625 -54.65625 78.726562 -62.347656 73.15625 -68.484375 C 67.582031 -74.628906 60.359375 -77.703125 51.484375 -77.703125 Z M 51.484375 -77.703125 "/></g></g></g><g fill="#333333" fill-opacity="1"><g transform="translate(1007.037488, 356.577307)"><g><path d="M 30.40625 -121.40625 L 30.40625 -89.296875 L 46.359375 -89.296875 L 46.359375 -75.234375 L 30.40625 -75.234375 L 30.40625 0 L 15.203125 0 L 15.203125 -75.234375 L 5.890625 -75.234375 L 5.890625 -89.296875 L 15.203125 -89.296875 L 15.203125 -121.40625 Z M 30.40625 -121.40625 "/></g></g></g><g fill="#333333" fill-opacity="1"><g transform="translate(1060.045973, 356.577307)"><g><path d="M 32.484375 -89.296875 L 32.484375 0 L 17.296875 0 L 17.296875 -89.296875 Z M 14.0625 -123.3125 C 14.0625 -126.09375 15.164062 -128.53125 17.375 -130.625 C 19.59375 -132.71875 22.097656 -133.765625 24.890625 -133.765625 C 27.804688 -133.765625 30.335938 -132.71875 32.484375 -130.625 C 34.640625 -128.53125 35.71875 -126.09375 35.71875 -123.3125 C 35.71875 -120.019531 34.640625 -117.328125 32.484375 -115.234375 C 30.335938 -113.140625 27.804688 -112.09375 24.890625 -112.09375 C 21.972656 -112.09375 19.4375 -113.109375 17.28125 -115.140625 C 15.132812 -117.171875 14.0625 -119.894531 14.0625 -123.3125 Z M 14.0625 -123.3125 "/></g></g></g><g fill="#333333" fill-opacity="1"><g transform="translate(1117.234995, 356.577307)"><g><path d="M 17.484375 -89.296875 L 44.078125 -29.265625 L 70.6875 -89.296875 L 87.78125 -89.296875 L 44.078125 5.890625 L 0.1875 -89.296875 Z M 18.625 0 Z M 18.625 0 "/></g></g></g><g fill="#333333" fill-opacity="1"><g transform="translate(1212.613198, 356.577307)"><g><path d="M 92.15625 -41.421875 L 22.046875 -41.421875 C 22.296875 -32.554688 25.207031 -25.367188 30.78125 -19.859375 C 36.351562 -14.347656 43.191406 -11.59375 51.296875 -11.59375 C 56.992188 -11.59375 62.023438 -13.046875 66.390625 -15.953125 C 70.765625 -18.867188 74.789062 -23.554688 78.46875 -30.015625 L 91.390625 -22.609375 C 87.085938 -14.628906 81.421875 -8.453125 74.390625 -4.078125 C 67.359375 0.285156 59.28125 2.46875 50.15625 2.46875 C 41.414062 2.46875 33.6875 0.378906 26.96875 -3.796875 C 20.257812 -7.972656 15.160156 -13.578125 11.671875 -20.609375 C 8.191406 -27.640625 6.453125 -35.273438 6.453125 -43.515625 C 6.453125 -52.628906 8.191406 -60.859375 11.671875 -68.203125 C 15.160156 -75.554688 20.195312 -81.320312 26.78125 -85.5 C 33.375 -89.675781 41.039062 -91.765625 49.78125 -91.765625 C 58.269531 -91.765625 65.773438 -89.707031 72.296875 -85.59375 C 78.816406 -81.476562 83.785156 -75.8125 87.203125 -68.59375 C 90.628906 -61.375 92.34375 -53.265625 92.34375 -44.265625 C 92.34375 -43.378906 92.28125 -42.429688 92.15625 -41.421875 Z M 76.1875 -54.34375 C 74.925781 -61.3125 71.820312 -66.945312 66.875 -71.25 C 61.9375 -75.550781 56.300781 -77.703125 49.96875 -77.703125 C 43.757812 -77.703125 37.929688 -75.453125 32.484375 -70.953125 C 27.035156 -66.460938 23.804688 -60.925781 22.796875 -54.34375 Z M 76.1875 -54.34375 "/></g></g></g><g fill="#333333" fill-opacity="1"><g transform="translate(1318.63096, 356.577307)"><g><path d="M 50.546875 -68.59375 C 49.148438 -71.5 47.375 -73.742188 45.21875 -75.328125 C 43.0625 -76.910156 40.78125 -77.703125 38.375 -77.703125 C 35.59375 -77.703125 33.0625 -76.71875 30.78125 -74.75 C 28.5 -72.789062 27.359375 -70.484375 27.359375 -67.828125 C 27.359375 -62.640625 32.328125 -58.238281 42.265625 -54.625 C 52.210938 -51.007812 59.117188 -47.050781 62.984375 -42.75 C 66.847656 -38.445312 68.78125 -33.0625 68.78125 -26.59375 C 68.78125 -21.65625 67.640625 -17.03125 65.359375 -12.71875 C 63.078125 -8.414062 59.5625 -4.804688 54.8125 -1.890625 C 50.0625 1.015625 44.644531 2.46875 38.5625 2.46875 C 31.21875 2.46875 24.757812 0.503906 19.1875 -3.421875 C 13.613281 -7.347656 9.5625 -12.921875 7.03125 -20.140625 L 20.515625 -25.84375 C 22.796875 -20.519531 25.359375 -16.8125 28.203125 -14.71875 C 31.054688 -12.632812 34.578125 -11.59375 38.765625 -11.59375 C 43.066406 -11.59375 46.546875 -12.890625 49.203125 -15.484375 C 51.867188 -18.078125 53.203125 -21.335938 53.203125 -25.265625 C 53.203125 -28.554688 52 -31.4375 49.59375 -33.90625 C 47.1875 -36.382812 42.785156 -38.890625 36.390625 -41.421875 C 29.992188 -43.953125 25.019531 -46.484375 21.46875 -49.015625 C 15.894531 -53.066406 13.046875 -58.894531 12.921875 -66.5 C 12.921875 -73.59375 15.453125 -79.578125 20.515625 -84.453125 C 25.585938 -89.328125 31.921875 -91.765625 39.515625 -91.765625 C 44.328125 -91.765625 48.953125 -90.242188 53.390625 -87.203125 C 57.828125 -84.171875 61.117188 -80.179688 63.265625 -75.234375 Z M 50.546875 -68.59375 "/></g></g></g></svg>